<svg xmlns="http://www.w3.org/2000/svg" xmlns:xlink="http://www.w3.org/1999/xlink" width="1000" zoomAndPan="magnify" viewBox="0 0 750 149.999998" height="200" preserveAspectRatio="xMidYMid meet" version="1.0"><defs><g/></defs><g fill="#ffdf2b" fill-opacity="1"><g transform="translate(81.791324, 100.124996)"><g><path d="M 3.0625 0 C 2.6875 0 2.378906 -0.128906 2.140625 -0.390625 C 1.898438 -0.648438 1.78125 -1.019531 1.78125 -1.5 C 1.78125 -1.832031 1.851562 -2.210938 2 -2.640625 L 19.25 -51.265625 C 19.488281 -51.878906 19.75 -52.304688 20.03125 -52.546875 C 20.320312 -52.785156 20.773438 -52.90625 21.390625 -52.90625 L 35.4375 -52.90625 C 36.007812 -52.90625 36.519531 -52.722656 36.96875 -52.359375 C 37.414062 -52.003906 37.757812 -51.546875 38 -50.984375 L 55.109375 -2.421875 C 55.203125 -2.046875 55.25 -1.757812 55.25 -1.5625 C 55.25 -1.132812 55.15625 -0.765625 54.96875 -0.453125 C 54.78125 -0.148438 54.492188 0 54.109375 0 L 40.140625 0 C 39.328125 0 38.804688 -0.40625 38.578125 -1.21875 L 35.796875 -9.40625 C 35.648438 -9.738281 35.515625 -9.960938 35.390625 -10.078125 C 35.273438 -10.203125 35.050781 -10.265625 34.71875 -10.265625 L 19.609375 -10.265625 C 19.035156 -10.265625 18.675781 -10.003906 18.53125 -9.484375 L 15.609375 -1.0625 C 15.328125 -0.351562 14.757812 0 13.90625 0 Z M 31.15625 -22.390625 C 31.675781 -22.390625 31.9375 -22.625 31.9375 -23.09375 C 31.9375 -23.195312 31.890625 -23.4375 31.796875 -23.8125 L 27.515625 -36 C 27.421875 -36.238281 27.28125 -36.359375 27.09375 -36.359375 C 26.90625 -36.359375 26.765625 -36.238281 26.671875 -36 L 22.3125 -23.890625 C 22.21875 -23.691406 22.171875 -23.453125 22.171875 -23.171875 C 22.171875 -22.648438 22.457031 -22.390625 23.03125 -22.390625 Z M 31.15625 -22.390625 "/></g></g></g><g fill="#ffdf2b" fill-opacity="1"><g transform="translate(138.748097, 100.124996)"><g><path d="M 18.609375 -52.90625 C 19.460938 -52.90625 19.890625 -52.40625 19.890625 -51.40625 L 19.890625 -2.0625 C 19.890625 -1.300781 19.695312 -0.765625 19.3125 -0.453125 C 18.9375 -0.148438 18.34375 0 17.53125 0 L 5.625 0 C 4.914062 0 4.414062 -0.140625 4.125 -0.421875 C 3.84375 -0.710938 3.703125 -1.164062 3.703125 -1.78125 L 3.703125 -51.265625 C 3.703125 -51.785156 3.820312 -52.1875 4.0625 -52.46875 C 4.300781 -52.757812 4.632812 -52.90625 5.0625 -52.90625 Z M 18.609375 -52.90625 "/></g></g></g><g fill="#ffdf2b" fill-opacity="1"><g transform="translate(162.343456, 100.124996)"><g><path d="M 27.09375 0.71875 C 22.144531 0.71875 17.78125 -0.421875 14 -2.703125 C 10.226562 -4.984375 7.304688 -8.15625 5.234375 -12.21875 C 3.171875 -16.289062 2.140625 -20.960938 2.140625 -26.234375 C 2.140625 -31.648438 3.234375 -36.425781 5.421875 -40.5625 C 7.609375 -44.695312 10.660156 -47.90625 14.578125 -50.1875 C 18.503906 -52.46875 22.984375 -53.609375 28.015625 -53.609375 C 32.109375 -53.609375 35.757812 -52.859375 38.96875 -51.359375 C 42.175781 -49.867188 44.765625 -47.9375 46.734375 -45.5625 C 48.703125 -43.1875 50 -40.664062 50.625 -38 C 50.757812 -37.425781 50.828125 -36.972656 50.828125 -36.640625 C 50.828125 -36.210938 50.734375 -35.925781 50.546875 -35.78125 C 50.359375 -35.644531 50.050781 -35.550781 49.625 -35.5 L 37.4375 -33.65625 C 36.90625 -33.65625 36.566406 -33.75 36.421875 -33.9375 C 36.285156 -34.125 36.144531 -34.503906 36 -35.078125 C 35.625 -37.265625 34.734375 -39.054688 33.328125 -40.453125 C 31.929688 -41.859375 30.039062 -42.5625 27.65625 -42.5625 C 24.851562 -42.5625 22.726562 -41.359375 21.28125 -38.953125 C 19.832031 -36.554688 19.109375 -32.460938 19.109375 -26.671875 C 19.109375 -20.578125 19.890625 -16.34375 21.453125 -13.96875 C 23.023438 -11.59375 25.285156 -10.40625 28.234375 -10.40625 C 32.085938 -10.40625 34.65625 -12.070312 35.9375 -15.40625 L 36.140625 -16.046875 L 36.296875 -16.609375 C 36.296875 -17.035156 36.03125 -17.25 35.5 -17.25 L 28.796875 -17.25 C 28.273438 -17.25 27.90625 -17.367188 27.6875 -17.609375 C 27.476562 -17.847656 27.375 -18.253906 27.375 -18.828125 L 27.375 -25.671875 C 27.375 -26.472656 27.875 -26.875 28.875 -26.875 L 48.84375 -26.734375 C 49.695312 -26.734375 50.359375 -26.53125 50.828125 -26.125 C 51.304688 -25.726562 51.546875 -25.195312 51.546875 -24.53125 L 51.546875 -1.21875 C 51.546875 -0.882812 51.425781 -0.597656 51.1875 -0.359375 C 50.945312 -0.117188 50.660156 0 50.328125 0 L 47.625 0 C 46.769531 0 46.007812 -0.453125 45.34375 -1.359375 L 42.5 -5.484375 C 42.445312 -5.628906 42.347656 -5.703125 42.203125 -5.703125 C 42.109375 -5.703125 41.941406 -5.582031 41.703125 -5.34375 C 40.472656 -4.15625 39.296875 -3.15625 38.171875 -2.34375 C 37.054688 -1.539062 35.570312 -0.828125 33.71875 -0.203125 C 31.863281 0.410156 29.65625 0.71875 27.09375 0.71875 Z M 27.09375 0.71875 "/></g></g></g><g fill="#ffdf2b" fill-opacity="1"><g transform="translate(216.591389, 100.124996)"><g><path d="M 27.453125 -53.609375 C 31.390625 -53.609375 34.953125 -52.90625 38.140625 -51.5 C 41.328125 -50.101562 43.941406 -48.171875 45.984375 -45.703125 C 48.023438 -43.234375 49.359375 -40.40625 49.984375 -37.21875 C 50.117188 -36.644531 50.1875 -36.191406 50.1875 -35.859375 C 50.1875 -35.429688 50.101562 -35.144531 49.9375 -35 C 49.769531 -34.863281 49.472656 -34.769531 49.046875 -34.71875 L 36.578125 -33.9375 C 36.097656 -33.9375 35.785156 -34.019531 35.640625 -34.1875 C 35.503906 -34.351562 35.363281 -34.722656 35.21875 -35.296875 C 34.789062 -37.578125 34.003906 -39.367188 32.859375 -40.671875 C 31.722656 -41.984375 30.0625 -42.640625 27.875 -42.640625 C 25.070312 -42.640625 22.910156 -41.398438 21.390625 -38.921875 C 19.867188 -36.453125 19.109375 -32.4375 19.109375 -26.875 C 19.109375 -21.125 19.804688 -17.035156 21.203125 -14.609375 C 22.609375 -12.191406 24.8125 -10.984375 27.8125 -10.984375 C 30.320312 -10.984375 32.46875 -11.625 34.25 -12.90625 C 36.039062 -14.1875 37.53125 -16.328125 38.71875 -19.328125 C 38.851562 -19.753906 39.253906 -19.96875 39.921875 -19.96875 C 40.253906 -19.96875 40.515625 -19.941406 40.703125 -19.890625 L 49.625 -18.109375 C 50.332031 -17.867188 50.6875 -17.320312 50.6875 -16.46875 C 50.6875 -15.132812 49.863281 -13.078125 48.21875 -10.296875 C 46.582031 -7.515625 44.019531 -4.984375 40.53125 -2.703125 C 37.039062 -0.421875 32.632812 0.71875 27.3125 0.71875 C 22.269531 0.71875 17.847656 -0.476562 14.046875 -2.875 C 10.242188 -5.28125 7.304688 -8.585938 5.234375 -12.796875 C 3.171875 -17.003906 2.140625 -21.796875 2.140625 -27.171875 C 2.140625 -32.492188 3.171875 -37.148438 5.234375 -41.140625 C 7.304688 -45.128906 10.253906 -48.203125 14.078125 -50.359375 C 17.910156 -52.523438 22.367188 -53.609375 27.453125 -53.609375 Z M 27.453125 -53.609375 "/></g></g></g><path stroke-linecap="butt" transform="matrix(0.75, 0, 0, 0.75, 288.083193, 40.875)" fill="none" stroke-linejoin="miter" d="M 42.467204 77.911463 C 36.154704 77.911463 30.581787 76.458338 25.748453 73.552088 C 20.930744 70.635421 17.206786 66.583338 14.566161 61.395837 C 11.930744 56.192712 10.607827 50.223962 10.607827 43.494795 C 10.607827 36.578128 12.003661 30.479169 14.790119 25.203127 C 17.592202 19.91146 21.493244 15.812501 26.503661 12.906251 C 31.514078 9.989584 37.232829 8.526043 43.665121 8.526043 C 48.883871 8.526043 53.540121 9.484376 57.628663 11.395835 C 61.73283 13.307293 65.04533 15.781251 67.566164 18.81771 C 70.086997 21.843752 71.738039 25.062502 72.524497 28.468752 C 72.701581 29.192711 72.790122 29.770836 72.790122 30.203127 C 72.790122 30.750002 72.670331 31.114586 72.435956 31.291669 C 72.196372 31.468752 71.805747 31.588544 71.258872 31.645836 L 55.67033 34.026044 C 55.003663 34.026044 54.581788 33.906252 54.404705 33.671877 C 54.227621 33.416669 54.040121 32.932294 53.847413 32.203127 C 53.373455 29.401044 52.243246 27.114585 50.446371 25.333335 C 48.654704 23.541669 46.238038 22.645835 43.201579 22.645835 C 39.628662 22.645835 36.91512 24.177085 35.066162 27.244794 C 33.211995 30.296877 32.284912 35.531253 32.284912 42.942711 C 32.284912 50.708337 33.284912 56.109379 35.284912 59.145837 C 37.284912 62.187504 40.170329 63.703129 43.935954 63.703129 C 48.852621 63.703129 52.128663 61.578129 53.758871 57.322921 L 54.050538 56.505212 L 54.227621 55.79167 C 54.227621 55.244795 53.894288 54.968754 53.227621 54.968754 L 44.670329 54.968754 C 44.003662 54.968754 43.524496 54.82292 43.243246 54.526045 C 42.977621 54.213545 42.847412 53.692712 42.847412 52.968754 L 42.847412 44.208336 C 42.847412 43.187503 43.482829 42.677086 44.758871 42.677086 L 70.258872 42.85417 C 71.336997 42.85417 72.180747 43.109378 72.790122 43.630211 C 73.399497 44.151045 73.701581 44.833336 73.701581 45.677087 L 73.701581 75.442713 C 73.701581 75.875005 73.545331 76.244797 73.238039 76.557297 C 72.941164 76.854172 72.581789 77.000005 72.170331 77.000005 L 68.70158 77.000005 C 67.602622 77.000005 66.633872 76.42188 65.790122 75.26563 L 62.144288 69.994796 C 62.081788 69.802088 61.961997 69.708338 61.784913 69.708338 C 61.665122 69.708338 61.45158 69.864588 61.13908 70.177088 C 59.571372 71.687505 58.066163 72.963546 56.628663 74.000005 C 55.206788 75.020838 53.310955 75.932297 50.935954 76.73438 C 48.581788 77.520838 45.758871 77.911463 42.467204 77.911463 Z M 81.076581 77.000005 C 80.586998 77.000005 80.185956 76.838547 79.873456 76.510422 C 79.576581 76.17188 79.430748 75.697922 79.430748 75.088547 C 79.430748 74.656255 79.524498 74.166672 79.717206 73.619796 L 101.748457 11.526043 C 102.045332 10.744793 102.378666 10.203126 102.748457 9.906251 C 103.118249 9.593751 103.696374 9.437501 104.482833 9.437501 L 122.425542 9.437501 C 123.1495 9.437501 123.80575 9.666668 124.378667 10.130209 C 124.956792 10.572918 125.394292 11.156251 125.691167 11.885418 L 147.545335 73.911463 C 147.665127 74.401047 147.722418 74.760422 147.722418 75.000005 C 147.722418 75.54688 147.607835 76.020838 147.368252 76.42188 C 147.133877 76.807297 146.769293 77.000005 146.27971 77.000005 L 128.425542 77.000005 C 127.389084 77.000005 126.722417 76.479172 126.425542 75.442713 L 122.86825 64.973963 C 122.691167 64.557296 122.519292 64.276046 122.357834 64.130213 C 122.212 63.963546 121.93075 63.885421 121.514084 63.885421 L 102.196374 63.885421 C 101.467207 63.885421 101.014082 64.218754 100.836999 64.885421 L 97.102624 75.645838 C 96.732832 76.54688 96.008874 77.000005 94.92554 77.000005 Z M 116.956792 48.411462 C 117.623458 48.411462 117.956792 48.10417 117.956792 47.500003 C 117.956792 47.380212 117.8995 47.078128 117.779708 46.588545 L 112.310958 31.026044 C 112.191166 30.713544 112.003666 30.557294 111.753666 30.557294 C 111.514083 30.557294 111.337 30.713544 111.222416 31.026044 L 105.659916 46.500003 C 105.545333 46.734378 105.482833 47.04167 105.482833 47.411462 C 105.482833 48.078128 105.847416 48.411462 106.571374 48.411462 Z M 154.644294 11.526043 C 154.644294 10.859376 154.790127 10.348959 155.087002 9.994793 C 155.399502 9.625001 155.826586 9.437501 156.378669 9.437501 L 173.675545 9.437501 C 174.769295 9.437501 175.31617 10.078126 175.31617 11.34896 L 175.31617 60.791671 C 175.31617 61.281254 175.394295 61.614587 175.540128 61.791671 C 175.69117 61.973962 175.977628 62.062504 176.40992 62.062504 L 203.82138 62.062504 C 205.212005 62.062504 205.909922 62.640629 205.909922 63.796879 L 205.909922 75.000005 C 205.909922 75.60938 205.706797 76.093755 205.310963 76.468755 C 204.925547 76.822922 204.368255 77.000005 203.639088 77.000005 L 157.113044 77.000005 C 156.191169 77.000005 155.545336 76.822922 155.175544 76.468755 C 154.821377 76.093755 154.644294 75.51563 154.644294 74.73438 Z M 213.185964 11.526043 C 213.185964 10.859376 213.337006 10.348959 213.628672 9.994793 C 213.941172 9.625001 214.373464 9.437501 214.920339 9.437501 L 232.217215 9.437501 C 233.310965 9.437501 233.863048 10.078126 233.863048 11.34896 L 233.863048 60.791671 C 233.863048 61.281254 233.935965 61.614587 234.081798 61.791671 C 234.23284 61.973962 234.519298 62.062504 234.95159 62.062504 L 262.36305 62.062504 C 263.753675 62.062504 264.451592 62.640629 264.451592 63.796879 L 264.451592 75.000005 C 264.451592 75.60938 264.253675 76.093755 263.852634 76.468755 C 263.467217 76.822922 262.909925 77.000005 262.185967 77.000005 L 215.654714 77.000005 C 214.732839 77.000005 214.092214 76.822922 213.722422 76.468755 C 213.363047 76.093755 213.185964 75.51563 213.185964 74.73438 Z M 271.727634 11.526043 C 271.727634 10.135418 272.305759 9.437501 273.462009 9.437501 L 322.639095 9.437501 C 323.722429 9.437501 324.264095 10.078126 324.264095 11.34896 L 324.175554 21.91146 C 324.175554 23.557294 323.389095 24.38021 321.816179 24.38021 L 294.49326 24.38021 C 293.102635 24.38021 292.404719 24.947919 292.404719 26.088544 L 292.404719 33.828127 C 292.404719 34.432294 292.550552 34.906253 292.847427 35.250003 C 293.159927 35.588544 293.560969 35.760419 294.050552 35.760419 L 310.43597 35.760419 C 311.706803 35.760419 312.347428 36.359378 312.347428 37.562503 L 312.347428 48.85417 C 312.347428 49.890628 311.800553 50.411462 310.701595 50.411462 L 293.847427 50.411462 C 293.435969 50.411462 293.08701 50.536462 292.80576 50.79167 C 292.540135 51.026045 292.404719 51.32292 292.404719 51.677087 L 292.404719 60.791671 C 292.404719 61.281254 292.477635 61.614587 292.628677 61.791671 C 292.77451 61.973962 293.066177 62.062504 293.49326 62.062504 L 323.081804 62.062504 C 324.420345 62.062504 325.087012 62.640629 325.087012 63.796879 L 325.087012 75.000005 C 325.087012 75.60938 324.899512 76.093755 324.52972 76.468755 C 324.175554 76.822922 323.633887 77.000005 322.90472 77.000005 L 274.196384 77.000005 C 273.279717 77.000005 272.633884 76.822922 272.264092 76.468755 C 271.909926 76.093755 271.727634 75.51563 271.727634 74.73438 Z M 391.915141 74.088547 C 392.029724 74.322922 392.092224 74.656255 392.092224 75.088547 C 392.092224 75.635422 391.920349 76.093755 391.581808 76.468755 C 391.253683 76.822922 390.821391 77.000005 390.290141 77.000005 L 372.618265 77.000005 C 371.342223 77.000005 370.519306 76.364588 370.149515 75.088547 L 361.587014 51.588545 C 361.409931 51.098962 361.107848 50.739587 360.675556 50.500003 C 360.264097 50.26042 359.623472 50.145837 358.764097 50.145837 L 354.587014 50.145837 C 354.217222 50.145837 353.94118 50.26042 353.764097 50.500003 C 353.587014 50.739587 353.498472 50.953128 353.498472 51.145837 L 353.498472 74.354172 C 353.498472 75.333338 353.25368 76.020838 352.764097 76.42188 C 352.274514 76.807297 351.519305 77.000005 350.498472 77.000005 L 335.180763 77.000005 C 334.274513 77.000005 333.649513 76.822922 333.310971 76.468755 C 332.982846 76.093755 332.821388 75.51563 332.821388 74.73438 L 332.821388 11.526043 C 332.821388 10.135418 333.399513 9.437501 334.555763 9.437501 L 364.967223 9.437501 C 373.774515 9.437501 380.597432 11.119793 385.441182 14.484376 C 390.305766 17.84896 392.738058 22.59896 392.738058 28.734377 C 392.738058 32.932294 391.623474 36.666669 389.399516 39.942711 C 387.191182 43.213545 384.331807 45.520837 380.82139 46.85417 C 380.451599 47.046878 380.264099 47.348962 380.264099 47.765628 C 380.264099 47.942712 380.32139 48.218753 380.441182 48.588545 Z M 364.144306 36.562503 C 366.456806 36.562503 368.238056 35.973961 369.482848 34.807294 C 370.72764 33.619794 371.347431 32.020836 371.347431 30.005211 C 371.347431 27.765627 370.60264 26.020835 369.10264 24.776044 C 367.623473 23.531252 365.784931 22.91146 363.592223 22.91146 L 355.587014 22.91146 C 354.800556 22.91146 354.25368 23.052085 353.94118 23.333335 C 353.644305 23.59896 353.498472 24.06771 353.498472 24.734377 L 353.498472 34.651044 C 353.498472 35.317711 353.602639 35.807294 353.810972 36.114586 C 354.014097 36.411461 354.425555 36.562503 355.029722 36.562503 Z M 462.107853 9.437501 C 463.206812 9.437501 463.753687 9.802084 463.753687 10.526043 C 463.753687 10.708334 463.633895 11.041668 463.39952 11.526043 L 442.076602 45.942712 C 441.665144 46.552087 441.404727 47.223962 441.300561 47.963545 C 441.212019 48.692712 441.165144 50.026045 441.165144 51.968754 L 441.165144 74.354172 C 441.165144 75.333338 440.920352 76.020838 440.435977 76.42188 C 439.95681 76.807297 439.201602 77.000005 438.165144 77.000005 L 422.868268 77.000005 C 421.967226 77.000005 421.342226 76.822922 421.003684 76.468755 C 420.659934 76.093755 420.493268 75.51563 420.493268 74.73438 L 420.493268 50.765628 C 420.493268 49.921878 420.404726 49.239587 420.222434 48.723962 C 420.045351 48.203128 419.712018 47.552087 419.222434 46.765628 L 397.925558 11.97396 C 397.675558 11.557293 397.550558 11.166668 397.550558 10.796876 C 397.550558 9.890626 398.217225 9.437501 399.550558 9.437501 L 417.868268 9.437501 C 418.712018 9.437501 419.326601 9.562501 419.712018 9.817709 C 420.113059 10.052084 420.529726 10.562501 420.956809 11.34896 L 432.165143 31.557294 C 432.462018 32.166669 432.70681 32.468752 432.89431 32.468752 C 433.191185 32.468752 433.462018 32.197919 433.696393 31.645836 L 444.722436 11.34896 C 445.092227 10.562501 445.488061 10.052084 445.904727 9.817709 C 446.331811 9.562501 446.967228 9.437501 447.816186 9.437501 Z M 462.107853 9.437501 " stroke="#ffdf2b" stroke-width="3.415009" stroke-opacity="1" stroke-miterlimit="4"/></svg>