<svg xmlns="http://www.w3.org/2000/svg" xmlns:xlink="http://www.w3.org/1999/xlink" width="600" zoomAndPan="magnify" viewBox="0 0 450 449.999984" height="600" preserveAspectRatio="xMidYMid meet" version="1.0"><defs><g/></defs><g fill="#000000" fill-opacity="0.4"><g transform="translate(58.524808, 184.501124)"><g><path d="M 45.773438 0 C 46.804688 0 47.148438 -0.515625 46.976562 -1.460938 L 32.695312 -67.628906 C 32.523438 -68.488281 32.007812 -68.832031 31.234375 -68.832031 L 19.273438 -68.832031 C 18.5 -68.832031 17.980469 -68.488281 17.808594 -67.628906 L 3.527344 -1.460938 C 3.269531 -0.515625 3.699219 0 4.644531 0 L 13.851562 0 C 14.625 0 15.058594 -0.429688 15.230469 -1.203125 L 17.550781 -13.765625 L 32.867188 -13.765625 L 35.277344 -1.203125 C 35.449219 -0.429688 35.878906 0 36.652344 0 Z M 30.714844 -23.746094 L 19.703125 -23.746094 L 25.210938 -53.773438 Z M 30.714844 -23.746094 "/></g></g></g><g fill="#000000" fill-opacity="0.4"><g transform="translate(110.665035, 184.501124)"><g><path d="M 5.679688 -68.832031 C 4.730469 -68.832031 4.300781 -68.316406 4.300781 -67.457031 L 4.300781 -1.375 C 4.300781 -0.515625 4.730469 0 5.679688 0 L 14.625 0 C 15.488281 0 16.003906 -0.515625 16.003906 -1.375 L 16.003906 -67.457031 C 16.003906 -68.316406 15.488281 -68.832031 14.625 -68.832031 Z M 5.679688 -68.832031 "/></g></g></g><g fill="#000000" fill-opacity="0.4"><g transform="translate(132.691308, 184.501124)"><g><path d="M 4.300781 -12.390625 C 4.300781 -4.300781 8.605469 0 16.691406 0 L 28.050781 0 C 36.050781 0 40.4375 -4.300781 40.4375 -12.390625 L 40.4375 -36.308594 C 40.4375 -37.253906 39.921875 -37.683594 39.0625 -37.683594 L 24.605469 -37.683594 C 23.660156 -37.683594 23.230469 -37.253906 23.230469 -36.308594 L 23.230469 -27.703125 C 23.230469 -26.84375 23.660156 -26.328125 24.605469 -26.328125 L 29.082031 -26.328125 L 29.082031 -14.800781 C 29.082031 -12.476562 27.875 -11.355469 25.640625 -11.355469 L 19.445312 -11.355469 C 17.207031 -11.355469 16.003906 -12.476562 16.003906 -14.800781 L 16.003906 -54.03125 C 16.003906 -56.269531 17.121094 -57.476562 19.445312 -57.476562 L 25.640625 -57.476562 C 27.875 -57.476562 29.082031 -56.269531 29.082031 -54.03125 L 29.082031 -47.492188 C 29.082031 -46.632812 29.511719 -46.117188 30.457031 -46.117188 L 39.0625 -46.117188 C 39.921875 -46.117188 40.4375 -46.632812 40.4375 -47.492188 L 40.4375 -56.441406 C 40.4375 -64.53125 36.050781 -68.832031 28.050781 -68.832031 L 16.691406 -68.832031 C 8.605469 -68.832031 4.300781 -64.53125 4.300781 -56.441406 Z M 4.300781 -12.390625 "/></g></g></g><g fill="#000000" fill-opacity="0.4"><g transform="translate(179.152912, 184.501124)"><g><path d="M 38.804688 -56.441406 C 38.804688 -64.53125 34.414062 -68.832031 26.414062 -68.832031 L 16.777344 -68.832031 C 8.691406 -68.832031 4.300781 -64.53125 4.300781 -56.441406 L 4.300781 -12.390625 C 4.300781 -4.300781 8.691406 0 16.777344 0 L 26.414062 0 C 34.414062 0 38.804688 -4.300781 38.804688 -12.390625 L 38.804688 -21.683594 C 38.804688 -22.542969 38.289062 -23.058594 37.425781 -23.058594 L 28.824219 -23.058594 C 27.875 -23.058594 27.445312 -22.542969 27.445312 -21.683594 L 27.445312 -14.800781 C 27.445312 -12.476562 26.242188 -11.355469 24.003906 -11.355469 L 19.53125 -11.355469 C 17.292969 -11.355469 16.089844 -12.476562 16.089844 -14.800781 L 16.089844 -54.03125 C 16.089844 -56.269531 17.207031 -57.476562 19.53125 -57.476562 L 24.003906 -57.476562 C 26.242188 -57.476562 27.445312 -56.269531 27.445312 -54.03125 L 27.445312 -47.148438 C 27.445312 -46.289062 27.875 -45.773438 28.824219 -45.773438 L 37.425781 -45.773438 C 38.289062 -45.773438 38.804688 -46.289062 38.804688 -47.148438 Z M 38.804688 -56.441406 "/></g></g></g><g fill="#000000" fill-opacity="0.4"><g transform="translate(223.97975, 184.501124)"><g/></g></g><g fill="#000000" fill-opacity="0.4"><g transform="translate(247.210585, 184.501124)"><g><path d="M 28.996094 -35.105469 L 42.160156 -66.765625 C 42.675781 -67.972656 42.246094 -68.832031 40.867188 -68.832031 L 32.265625 -68.832031 C 31.320312 -68.832031 30.628906 -68.488281 30.285156 -67.628906 L 22.285156 -47.234375 L 14.28125 -67.628906 C 13.9375 -68.488281 13.25 -68.832031 12.304688 -68.832031 L 3.699219 -68.832031 C 2.324219 -68.832031 1.894531 -67.972656 2.410156 -66.765625 L 15.488281 -35.105469 L 1.894531 -2.066406 C 1.375 -0.859375 1.808594 0 3.183594 0 L 12.046875 0 C 12.992188 0 13.679688 -0.34375 14.023438 -1.203125 L 22.285156 -22.027344 L 30.542969 -1.203125 C 30.886719 -0.34375 31.578125 0 32.523438 0 L 41.386719 0 C 42.761719 0 43.191406 -0.859375 42.675781 -2.066406 Z M 28.996094 -35.105469 "/></g></g></g><g fill="#000000" fill-opacity="1"><g transform="translate(52.136402, 178.112716)"><g><path d="M 45.773438 0 C 46.804688 0 47.148438 -0.515625 46.976562 -1.460938 L 32.695312 -67.628906 C 32.523438 -68.488281 32.007812 -68.832031 31.234375 -68.832031 L 19.273438 -68.832031 C 18.5 -68.832031 17.980469 -68.488281 17.808594 -67.628906 L 3.527344 -1.460938 C 3.269531 -0.515625 3.699219 0 4.644531 0 L 13.851562 0 C 14.625 0 15.058594 -0.429688 15.230469 -1.203125 L 17.550781 -13.765625 L 32.867188 -13.765625 L 35.277344 -1.203125 C 35.449219 -0.429688 35.878906 0 36.652344 0 Z M 30.714844 -23.746094 L 19.703125 -23.746094 L 25.210938 -53.773438 Z M 30.714844 -23.746094 "/></g></g></g><g fill="#000000" fill-opacity="1"><g transform="translate(104.276629, 178.112716)"><g><path d="M 5.679688 -68.832031 C 4.730469 -68.832031 4.300781 -68.316406 4.300781 -67.457031 L 4.300781 -1.375 C 4.300781 -0.515625 4.730469 0 5.679688 0 L 14.625 0 C 15.488281 0 16.003906 -0.515625 16.003906 -1.375 L 16.003906 -67.457031 C 16.003906 -68.316406 15.488281 -68.832031 14.625 -68.832031 Z M 5.679688 -68.832031 "/></g></g></g><g fill="#000000" fill-opacity="1"><g transform="translate(126.302902, 178.112716)"><g><path d="M 4.300781 -12.390625 C 4.300781 -4.300781 8.605469 0 16.691406 0 L 28.050781 0 C 36.050781 0 40.4375 -4.300781 40.4375 -12.390625 L 40.4375 -36.308594 C 40.4375 -37.253906 39.921875 -37.683594 39.0625 -37.683594 L 24.605469 -37.683594 C 23.660156 -37.683594 23.230469 -37.253906 23.230469 -36.308594 L 23.230469 -27.703125 C 23.230469 -26.84375 23.660156 -26.328125 24.605469 -26.328125 L 29.082031 -26.328125 L 29.082031 -14.800781 C 29.082031 -12.476562 27.875 -11.355469 25.640625 -11.355469 L 19.445312 -11.355469 C 17.207031 -11.355469 16.003906 -12.476562 16.003906 -14.800781 L 16.003906 -54.03125 C 16.003906 -56.269531 17.121094 -57.476562 19.445312 -57.476562 L 25.640625 -57.476562 C 27.875 -57.476562 29.082031 -56.269531 29.082031 -54.03125 L 29.082031 -47.492188 C 29.082031 -46.632812 29.511719 -46.117188 30.457031 -46.117188 L 39.0625 -46.117188 C 39.921875 -46.117188 40.4375 -46.632812 40.4375 -47.492188 L 40.4375 -56.441406 C 40.4375 -64.53125 36.050781 -68.832031 28.050781 -68.832031 L 16.691406 -68.832031 C 8.605469 -68.832031 4.300781 -64.53125 4.300781 -56.441406 Z M 4.300781 -12.390625 "/></g></g></g><g fill="#000000" fill-opacity="1"><g transform="translate(172.764506, 178.112716)"><g><path d="M 38.804688 -56.441406 C 38.804688 -64.53125 34.414062 -68.832031 26.414062 -68.832031 L 16.777344 -68.832031 C 8.691406 -68.832031 4.300781 -64.53125 4.300781 -56.441406 L 4.300781 -12.390625 C 4.300781 -4.300781 8.691406 0 16.777344 0 L 26.414062 0 C 34.414062 0 38.804688 -4.300781 38.804688 -12.390625 L 38.804688 -21.683594 C 38.804688 -22.542969 38.289062 -23.058594 37.425781 -23.058594 L 28.824219 -23.058594 C 27.875 -23.058594 27.445312 -22.542969 27.445312 -21.683594 L 27.445312 -14.800781 C 27.445312 -12.476562 26.242188 -11.355469 24.003906 -11.355469 L 19.53125 -11.355469 C 17.292969 -11.355469 16.089844 -12.476562 16.089844 -14.800781 L 16.089844 -54.03125 C 16.089844 -56.269531 17.207031 -57.476562 19.53125 -57.476562 L 24.003906 -57.476562 C 26.242188 -57.476562 27.445312 -56.269531 27.445312 -54.03125 L 27.445312 -47.148438 C 27.445312 -46.289062 27.875 -45.773438 28.824219 -45.773438 L 37.425781 -45.773438 C 38.289062 -45.773438 38.804688 -46.289062 38.804688 -47.148438 Z M 38.804688 -56.441406 "/></g></g></g><g fill="#000000" fill-opacity="1"><g transform="translate(217.591344, 178.112716)"><g/></g></g><g fill="#000000" fill-opacity="1"><g transform="translate(240.82218, 178.112716)"><g><path d="M 28.996094 -35.105469 L 42.160156 -66.765625 C 42.675781 -67.972656 42.246094 -68.832031 40.867188 -68.832031 L 32.265625 -68.832031 C 31.320312 -68.832031 30.628906 -68.488281 30.285156 -67.628906 L 22.285156 -47.234375 L 14.28125 -67.628906 C 13.9375 -68.488281 13.25 -68.832031 12.304688 -68.832031 L 3.699219 -68.832031 C 2.324219 -68.832031 1.894531 -67.972656 2.410156 -66.765625 L 15.488281 -35.105469 L 1.894531 -2.066406 C 1.375 -0.859375 1.808594 0 3.183594 0 L 12.046875 0 C 12.992188 0 13.679688 -0.34375 14.023438 -1.203125 L 22.285156 -22.027344 L 30.542969 -1.203125 C 30.886719 -0.34375 31.578125 0 32.523438 0 L 41.386719 0 C 42.761719 0 43.191406 -0.859375 42.675781 -2.066406 Z M 28.996094 -35.105469 "/></g></g></g><g fill="#000000" fill-opacity="0.4"><g transform="translate(58.524808, 274.410019)"><g><path d="M 4.300781 -1.375 C 4.300781 -0.515625 4.816406 0 5.679688 0 L 14.625 0 C 15.574219 0 16.003906 -0.515625 16.003906 -1.375 L 16.003906 -23.058594 L 26.328125 -23.058594 C 34.414062 -23.058594 38.71875 -27.445312 38.71875 -35.449219 L 38.71875 -56.441406 C 38.71875 -64.53125 34.414062 -68.832031 26.328125 -68.832031 L 5.679688 -68.832031 C 4.816406 -68.832031 4.300781 -68.316406 4.300781 -67.457031 Z M 16.003906 -34.414062 L 16.003906 -57.476562 L 23.574219 -57.476562 C 25.898438 -57.476562 27.015625 -56.269531 27.015625 -54.03125 L 27.015625 -37.859375 C 27.015625 -35.707031 25.898438 -34.414062 23.574219 -34.414062 Z M 16.003906 -34.414062 "/></g></g></g><g fill="#000000" fill-opacity="0.4"><g transform="translate(103.265609, 274.410019)"><g><path d="M 4.300781 -12.390625 C 4.300781 -4.300781 8.605469 0 16.691406 0 L 26.328125 0 C 34.414062 0 38.71875 -4.300781 38.71875 -12.390625 L 38.71875 -56.441406 C 38.71875 -64.53125 34.414062 -68.832031 26.328125 -68.832031 L 16.691406 -68.832031 C 8.605469 -68.832031 4.300781 -64.53125 4.300781 -56.441406 Z M 19.1875 -11.097656 C 16.949219 -11.097656 15.746094 -12.21875 15.746094 -14.539062 L 15.746094 -54.292969 C 15.746094 -56.527344 16.949219 -57.734375 19.1875 -57.734375 L 24.175781 -57.734375 C 26.414062 -57.734375 27.617188 -56.527344 27.617188 -54.292969 L 27.617188 -14.539062 C 27.617188 -12.21875 26.414062 -11.097656 24.175781 -11.097656 Z M 19.1875 -11.097656 "/></g></g></g><g fill="#000000" fill-opacity="0.4"><g transform="translate(148.006411, 274.410019)"><g><path d="M 38.632812 -67.457031 C 38.632812 -68.316406 38.289062 -68.832031 37.253906 -68.832031 L 5.59375 -68.832031 C 4.816406 -68.832031 4.300781 -68.316406 4.300781 -67.457031 L 4.300781 -1.375 C 4.300781 -0.515625 4.816406 0 5.59375 0 L 37.253906 0 C 38.289062 0 38.632812 -0.515625 38.632812 -1.375 L 38.632812 -9.980469 C 38.632812 -10.925781 38.289062 -11.355469 37.253906 -11.355469 L 15.746094 -11.355469 L 15.746094 -28.738281 L 32.179688 -28.738281 C 33.039062 -28.738281 33.554688 -29.253906 33.554688 -30.199219 L 33.554688 -38.71875 C 33.554688 -39.664062 33.039062 -40.179688 32.179688 -40.179688 L 15.746094 -40.179688 L 15.746094 -57.386719 L 37.253906 -57.386719 C 38.289062 -57.386719 38.632812 -57.992188 38.632812 -58.851562 Z M 38.632812 -67.457031 "/></g></g></g><g fill="#000000" fill-opacity="0.4"><g transform="translate(192.661176, 274.410019)"><g><path d="M 40.265625 -68.832031 C 39.234375 -68.832031 38.632812 -68.316406 38.375 -67.28125 L 28.824219 -24.433594 L 19.273438 -67.28125 C 19.015625 -68.316406 18.414062 -68.832031 17.378906 -68.832031 L 6.023438 -68.832031 C 4.902344 -68.832031 4.300781 -68.230469 4.300781 -67.109375 L 4.300781 -1.722656 C 4.300781 -0.601562 4.902344 0 6.023438 0 L 13.9375 0 C 15.058594 0 15.660156 -0.601562 15.660156 -1.722656 L 15.660156 -40.4375 L 16.261719 -40.4375 L 24.78125 -1.546875 C 25.039062 -0.515625 25.640625 0 26.671875 0 L 30.886719 0 C 31.921875 0 32.523438 -0.515625 32.78125 -1.546875 L 41.300781 -40.4375 L 41.902344 -40.4375 L 41.902344 -1.722656 C 41.902344 -0.601562 42.503906 0 43.621094 0 L 51.625 0 C 52.742188 0 53.34375 -0.601562 53.34375 -1.722656 L 53.34375 -67.109375 C 53.34375 -68.230469 52.742188 -68.832031 51.625 -68.832031 Z M 40.265625 -68.832031 "/></g></g></g><g fill="#000000" fill-opacity="1"><g transform="translate(52.136402, 268.02161)"><g><path d="M 4.300781 -1.375 C 4.300781 -0.515625 4.816406 0 5.679688 0 L 14.625 0 C 15.574219 0 16.003906 -0.515625 16.003906 -1.375 L 16.003906 -23.058594 L 26.328125 -23.058594 C 34.414062 -23.058594 38.71875 -27.445312 38.71875 -35.449219 L 38.71875 -56.441406 C 38.71875 -64.53125 34.414062 -68.832031 26.328125 -68.832031 L 5.679688 -68.832031 C 4.816406 -68.832031 4.300781 -68.316406 4.300781 -67.457031 Z M 16.003906 -34.414062 L 16.003906 -57.476562 L 23.574219 -57.476562 C 25.898438 -57.476562 27.015625 -56.269531 27.015625 -54.03125 L 27.015625 -37.859375 C 27.015625 -35.707031 25.898438 -34.414062 23.574219 -34.414062 Z M 16.003906 -34.414062 "/></g></g></g><g fill="#000000" fill-opacity="1"><g transform="translate(96.877203, 268.02161)"><g><path d="M 4.300781 -12.390625 C 4.300781 -4.300781 8.605469 0 16.691406 0 L 26.328125 0 C 34.414062 0 38.71875 -4.300781 38.71875 -12.390625 L 38.71875 -56.441406 C 38.71875 -64.53125 34.414062 -68.832031 26.328125 -68.832031 L 16.691406 -68.832031 C 8.605469 -68.832031 4.300781 -64.53125 4.300781 -56.441406 Z M 19.1875 -11.097656 C 16.949219 -11.097656 15.746094 -12.21875 15.746094 -14.539062 L 15.746094 -54.292969 C 15.746094 -56.527344 16.949219 -57.734375 19.1875 -57.734375 L 24.175781 -57.734375 C 26.414062 -57.734375 27.617188 -56.527344 27.617188 -54.292969 L 27.617188 -14.539062 C 27.617188 -12.21875 26.414062 -11.097656 24.175781 -11.097656 Z M 19.1875 -11.097656 "/></g></g></g><g fill="#000000" fill-opacity="1"><g transform="translate(141.618005, 268.02161)"><g><path d="M 38.632812 -67.457031 C 38.632812 -68.316406 38.289062 -68.832031 37.253906 -68.832031 L 5.59375 -68.832031 C 4.816406 -68.832031 4.300781 -68.316406 4.300781 -67.457031 L 4.300781 -1.375 C 4.300781 -0.515625 4.816406 0 5.59375 0 L 37.253906 0 C 38.289062 0 38.632812 -0.515625 38.632812 -1.375 L 38.632812 -9.980469 C 38.632812 -10.925781 38.289062 -11.355469 37.253906 -11.355469 L 15.746094 -11.355469 L 15.746094 -28.738281 L 32.179688 -28.738281 C 33.039062 -28.738281 33.554688 -29.253906 33.554688 -30.199219 L 33.554688 -38.71875 C 33.554688 -39.664062 33.039062 -40.179688 32.179688 -40.179688 L 15.746094 -40.179688 L 15.746094 -57.386719 L 37.253906 -57.386719 C 38.289062 -57.386719 38.632812 -57.992188 38.632812 -58.851562 Z M 38.632812 -67.457031 "/></g></g></g><g fill="#000000" fill-opacity="1"><g transform="translate(186.27277, 268.02161)"><g><path d="M 40.265625 -68.832031 C 39.234375 -68.832031 38.632812 -68.316406 38.375 -67.28125 L 28.824219 -24.433594 L 19.273438 -67.28125 C 19.015625 -68.316406 18.414062 -68.832031 17.378906 -68.832031 L 6.023438 -68.832031 C 4.902344 -68.832031 4.300781 -68.230469 4.300781 -67.109375 L 4.300781 -1.722656 C 4.300781 -0.601562 4.902344 0 6.023438 0 L 13.9375 0 C 15.058594 0 15.660156 -0.601562 15.660156 -1.722656 L 15.660156 -40.4375 L 16.261719 -40.4375 L 24.78125 -1.546875 C 25.039062 -0.515625 25.640625 0 26.671875 0 L 30.886719 0 C 31.921875 0 32.523438 -0.515625 32.78125 -1.546875 L 41.300781 -40.4375 L 41.902344 -40.4375 L 41.902344 -1.722656 C 41.902344 -0.601562 42.503906 0 43.621094 0 L 51.625 0 C 52.742188 0 53.34375 -0.601562 53.34375 -1.722656 L 53.34375 -67.109375 C 53.34375 -68.230469 52.742188 -68.832031 51.625 -68.832031 Z M 40.265625 -68.832031 "/></g></g></g><g fill="#000000" fill-opacity="1"><g transform="translate(52.136402, 340.428111)"><g><path d="M 3.0625 0 L 1.34375 0 L 1.34375 -10.21875 L 3.0625 -10.21875 Z M 3.0625 0 "/></g></g></g><g fill="#000000" fill-opacity="1"><g transform="translate(56.175578, 340.428111)"><g><path d="M 5.203125 -1.78125 L 5.640625 -0.5 C 4.992188 -0.113281 4.351562 0.078125 3.71875 0.078125 C 3.082031 0.078125 2.5625 -0.109375 2.15625 -0.484375 C 1.75 -0.867188 1.546875 -1.4375 1.546875 -2.1875 L 1.546875 -6.21875 L 0.453125 -6.21875 L 0.453125 -7.46875 L 1.546875 -7.46875 L 1.546875 -9.609375 L 3.203125 -9.609375 L 3.203125 -7.46875 L 5.5 -7.46875 L 5.5 -6.21875 L 3.203125 -6.21875 L 3.203125 -2.5 C 3.203125 -2.101562 3.269531 -1.828125 3.40625 -1.671875 C 3.550781 -1.515625 3.765625 -1.4375 4.046875 -1.4375 C 4.359375 -1.4375 4.742188 -1.550781 5.203125 -1.78125 Z M 5.203125 -1.78125 "/></g></g></g><g fill="#000000" fill-opacity="1"><g transform="translate(61.745946, 340.428111)"><g><path d="M 2.15625 -6.625 L 0.875 -6.625 L 0.875 -10.21875 L 2.15625 -10.21875 Z M 2.15625 -6.625 "/></g></g></g><g fill="#000000" fill-opacity="1"><g transform="translate(64.414331, 340.428111)"><g><path d="M 3.5625 -7.84375 C 4.632812 -7.84375 5.539062 -7.578125 6.28125 -7.046875 L 5.65625 -5.8125 C 4.914062 -6.269531 4.171875 -6.5 3.421875 -6.5 C 2.671875 -6.5 2.296875 -6.238281 2.296875 -5.71875 C 2.296875 -5.46875 2.4375 -5.257812 2.71875 -5.09375 C 3 -4.925781 3.335938 -4.785156 3.734375 -4.671875 C 4.140625 -4.566406 4.546875 -4.4375 4.953125 -4.28125 C 5.359375 -4.132812 5.703125 -3.890625 5.984375 -3.546875 C 6.265625 -3.203125 6.40625 -2.769531 6.40625 -2.25 C 6.40625 -1.5 6.117188 -0.925781 5.546875 -0.53125 C 4.984375 -0.132812 4.273438 0.0625 3.421875 0.0625 C 2.835938 0.0625 2.265625 -0.03125 1.703125 -0.21875 C 1.148438 -0.414062 0.6875 -0.679688 0.3125 -1.015625 L 0.90625 -2.21875 C 1.238281 -1.925781 1.644531 -1.691406 2.125 -1.515625 C 2.601562 -1.335938 3.0625 -1.25 3.5 -1.25 C 3.882812 -1.25 4.191406 -1.316406 4.421875 -1.453125 C 4.648438 -1.585938 4.765625 -1.800781 4.765625 -2.09375 C 4.765625 -2.382812 4.625 -2.613281 4.34375 -2.78125 C 4.0625 -2.957031 3.722656 -3.097656 3.328125 -3.203125 C 2.929688 -3.316406 2.53125 -3.445312 2.125 -3.59375 C 1.726562 -3.738281 1.390625 -3.976562 1.109375 -4.3125 C 0.835938 -4.644531 0.703125 -5.070312 0.703125 -5.59375 C 0.703125 -6.332031 0.972656 -6.890625 1.515625 -7.265625 C 2.066406 -7.648438 2.75 -7.84375 3.5625 -7.84375 Z M 3.5625 -7.84375 "/></g></g></g><g fill="#000000" fill-opacity="1"><g transform="translate(70.903431, 340.428111)"><g/></g></g><g fill="#000000" fill-opacity="1"><g transform="translate(74.300965, 340.428111)"><g><path d="M 5.890625 0 L 5.890625 -0.953125 C 5.335938 -0.265625 4.484375 0.078125 3.328125 0.078125 C 2.503906 0.078125 1.84375 -0.144531 1.34375 -0.59375 C 0.84375 -1.050781 0.59375 -1.628906 0.59375 -2.328125 C 0.59375 -3.046875 0.847656 -3.613281 1.359375 -4.03125 C 1.878906 -4.445312 2.601562 -4.660156 3.53125 -4.671875 L 5.875 -4.671875 L 5.875 -4.90625 C 5.875 -5.394531 5.71875 -5.773438 5.40625 -6.046875 C 5.09375 -6.328125 4.632812 -6.46875 4.03125 -6.46875 C 3.28125 -6.46875 2.515625 -6.203125 1.734375 -5.671875 L 1.046875 -6.84375 C 1.640625 -7.195312 2.171875 -7.445312 2.640625 -7.59375 C 3.117188 -7.75 3.703125 -7.828125 4.390625 -7.828125 C 5.378906 -7.828125 6.144531 -7.582031 6.6875 -7.09375 C 7.238281 -6.613281 7.519531 -5.945312 7.53125 -5.09375 L 7.546875 0 Z M 3.671875 -1.25 C 4.265625 -1.25 4.769531 -1.390625 5.1875 -1.671875 C 5.601562 -1.953125 5.832031 -2.304688 5.875 -2.734375 L 5.875 -3.4375 L 3.78125 -3.4375 C 3.226562 -3.4375 2.820312 -3.359375 2.5625 -3.203125 C 2.300781 -3.046875 2.171875 -2.78125 2.171875 -2.40625 C 2.171875 -2.050781 2.304688 -1.769531 2.578125 -1.5625 C 2.847656 -1.351562 3.210938 -1.25 3.671875 -1.25 Z M 3.671875 -1.25 "/></g></g></g><g fill="#000000" fill-opacity="1"><g transform="translate(82.481669, 340.428111)"><g><path d="M 5.78125 -7.828125 C 6.6875 -7.828125 7.394531 -7.5625 7.90625 -7.03125 C 8.414062 -6.5 8.671875 -5.765625 8.671875 -4.828125 L 8.671875 0 L 6.984375 0 L 6.984375 -4.359375 C 6.984375 -4.941406 6.816406 -5.398438 6.484375 -5.734375 C 6.160156 -6.078125 5.707031 -6.25 5.125 -6.25 C 4.5 -6.238281 3.988281 -6.035156 3.59375 -5.640625 C 3.195312 -5.253906 2.972656 -4.75 2.921875 -4.125 L 2.921875 0 L 1.234375 0 L 1.234375 -7.765625 L 2.921875 -7.765625 L 2.921875 -6.28125 C 3.441406 -7.3125 4.394531 -7.828125 5.78125 -7.828125 Z M 5.78125 -7.828125 "/></g></g></g><g fill="#000000" fill-opacity="1"><g transform="translate(91.785249, 340.428111)"><g/></g></g><g fill="#000000" fill-opacity="1"><g transform="translate(95.182781, 340.428111)"><g><path d="M 10.203125 0 L 8.515625 0 L 3.0625 -7.328125 L 3.0625 0 L 1.34375 0 L 1.34375 -10.21875 L 3.03125 -10.21875 L 8.515625 -2.875 L 8.515625 -10.21875 L 10.203125 -10.21875 Z M 10.203125 0 "/></g></g></g><g fill="#000000" fill-opacity="1"><g transform="translate(106.367546, 340.428111)"><g><path d="M 8.1875 -8.671875 L 3.0625 -8.671875 L 3.0625 -5.71875 L 7.703125 -5.71875 L 7.703125 -4.1875 L 3.0625 -4.1875 L 3.0625 0 L 1.34375 0 L 1.34375 -10.21875 L 8.203125 -10.21875 Z M 8.1875 -8.671875 "/></g></g></g><g fill="#000000" fill-opacity="1"><g transform="translate(114.38784, 340.428111)"><g><path d="M 8.3125 -8.671875 L 5.078125 -8.671875 L 5.078125 0 L 3.359375 0 L 3.359375 -8.671875 L 0.125 -8.671875 L 0.125 -10.21875 L 8.3125 -10.21875 Z M 8.3125 -8.671875 "/></g></g></g><g fill="#000000" fill-opacity="1"><g transform="translate(122.466471, 340.428111)"><g/></g></g><g fill="#000000" fill-opacity="1"><g transform="translate(125.864007, 340.428111)"><g><path d="M 4.421875 -7.828125 C 5.828125 -7.828125 6.894531 -7.398438 7.625 -6.546875 L 6.71875 -5.46875 C 6.132812 -6.0625 5.394531 -6.351562 4.5 -6.34375 C 3.820312 -6.34375 3.265625 -6.113281 2.828125 -5.65625 C 2.398438 -5.195312 2.1875 -4.597656 2.1875 -3.859375 C 2.1875 -3.128906 2.398438 -2.535156 2.828125 -2.078125 C 3.265625 -1.617188 3.820312 -1.390625 4.5 -1.390625 C 5.488281 -1.390625 6.25 -1.703125 6.78125 -2.328125 L 7.71875 -1.390625 C 6.988281 -0.421875 5.890625 0.0625 4.421875 0.0625 C 3.265625 0.0625 2.320312 -0.296875 1.59375 -1.015625 C 0.875 -1.742188 0.515625 -2.695312 0.515625 -3.875 C 0.515625 -5.050781 0.875 -6.003906 1.59375 -6.734375 C 2.320312 -7.460938 3.265625 -7.828125 4.421875 -7.828125 Z M 4.421875 -7.828125 "/></g></g></g><g fill="#000000" fill-opacity="1"><g transform="translate(133.723887, 340.428111)"><g><path d="M 4.5625 -7.828125 C 5.757812 -7.828125 6.734375 -7.460938 7.484375 -6.734375 C 8.234375 -6.003906 8.609375 -5.050781 8.609375 -3.875 C 8.609375 -2.707031 8.234375 -1.757812 7.484375 -1.03125 C 6.734375 -0.300781 5.757812 0.0625 4.5625 0.0625 C 3.363281 0.0625 2.390625 -0.300781 1.640625 -1.03125 C 0.890625 -1.757812 0.515625 -2.707031 0.515625 -3.875 C 0.515625 -5.050781 0.890625 -6.003906 1.640625 -6.734375 C 2.390625 -7.460938 3.363281 -7.828125 4.5625 -7.828125 Z M 4.5625 -6.375 C 3.863281 -6.375 3.289062 -6.140625 2.84375 -5.671875 C 2.40625 -5.203125 2.1875 -4.601562 2.1875 -3.875 C 2.1875 -3.125 2.40625 -2.515625 2.84375 -2.046875 C 3.289062 -1.578125 3.863281 -1.34375 4.5625 -1.34375 C 5.269531 -1.34375 5.84375 -1.578125 6.28125 -2.046875 C 6.71875 -2.515625 6.9375 -3.125 6.9375 -3.875 C 6.9375 -4.601562 6.710938 -5.203125 6.265625 -5.671875 C 5.828125 -6.140625 5.257812 -6.375 4.5625 -6.375 Z M 4.5625 -6.375 "/></g></g></g><g fill="#000000" fill-opacity="1"><g transform="translate(142.47333, 340.428111)"><g><path d="M 2.984375 0 L 1.3125 0 L 1.3125 -10.828125 L 2.984375 -10.828125 Z M 2.984375 0 "/></g></g></g><g fill="#000000" fill-opacity="1"><g transform="translate(146.410431, 340.428111)"><g><path d="M 2.984375 0 L 1.3125 0 L 1.3125 -10.828125 L 2.984375 -10.828125 Z M 2.984375 0 "/></g></g></g><g fill="#000000" fill-opacity="1"><g transform="translate(150.347533, 340.428111)"><g><path d="M 4.4375 -7.828125 C 5.769531 -7.828125 6.734375 -7.425781 7.328125 -6.625 C 7.929688 -5.820312 8.179688 -4.691406 8.078125 -3.234375 L 2.203125 -3.234375 C 2.335938 -2.628906 2.617188 -2.15625 3.046875 -1.8125 C 3.472656 -1.46875 3.992188 -1.296875 4.609375 -1.296875 C 5.484375 -1.296875 6.210938 -1.597656 6.796875 -2.203125 L 7.6875 -1.25 C 6.894531 -0.375 5.828125 0.0625 4.484375 0.0625 C 3.285156 0.0625 2.320312 -0.296875 1.59375 -1.015625 C 0.875 -1.742188 0.515625 -2.691406 0.515625 -3.859375 C 0.515625 -5.035156 0.878906 -5.988281 1.609375 -6.71875 C 2.335938 -7.445312 3.28125 -7.816406 4.4375 -7.828125 Z M 2.171875 -4.46875 L 6.609375 -4.46875 C 6.578125 -5.09375 6.367188 -5.582031 5.984375 -5.9375 C 5.597656 -6.300781 5.085938 -6.484375 4.453125 -6.484375 C 3.835938 -6.484375 3.328125 -6.300781 2.921875 -5.9375 C 2.523438 -5.582031 2.273438 -5.09375 2.171875 -4.46875 Z M 2.171875 -4.46875 "/></g></g></g><g fill="#000000" fill-opacity="1"><g transform="translate(158.55741, 340.428111)"><g><path d="M 4.421875 -7.828125 C 5.828125 -7.828125 6.894531 -7.398438 7.625 -6.546875 L 6.71875 -5.46875 C 6.132812 -6.0625 5.394531 -6.351562 4.5 -6.34375 C 3.820312 -6.34375 3.265625 -6.113281 2.828125 -5.65625 C 2.398438 -5.195312 2.1875 -4.597656 2.1875 -3.859375 C 2.1875 -3.128906 2.398438 -2.535156 2.828125 -2.078125 C 3.265625 -1.617188 3.820312 -1.390625 4.5 -1.390625 C 5.488281 -1.390625 6.25 -1.703125 6.78125 -2.328125 L 7.71875 -1.390625 C 6.988281 -0.421875 5.890625 0.0625 4.421875 0.0625 C 3.265625 0.0625 2.320312 -0.296875 1.59375 -1.015625 C 0.875 -1.742188 0.515625 -2.695312 0.515625 -3.875 C 0.515625 -5.050781 0.875 -6.003906 1.59375 -6.734375 C 2.320312 -7.460938 3.265625 -7.828125 4.421875 -7.828125 Z M 4.421875 -7.828125 "/></g></g></g><g fill="#000000" fill-opacity="1"><g transform="translate(166.41729, 340.428111)"><g><path d="M 5.203125 -1.78125 L 5.640625 -0.5 C 4.992188 -0.113281 4.351562 0.078125 3.71875 0.078125 C 3.082031 0.078125 2.5625 -0.109375 2.15625 -0.484375 C 1.75 -0.867188 1.546875 -1.4375 1.546875 -2.1875 L 1.546875 -6.21875 L 0.453125 -6.21875 L 0.453125 -7.46875 L 1.546875 -7.46875 L 1.546875 -9.609375 L 3.203125 -9.609375 L 3.203125 -7.46875 L 5.5 -7.46875 L 5.5 -6.21875 L 3.203125 -6.21875 L 3.203125 -2.5 C 3.203125 -2.101562 3.269531 -1.828125 3.40625 -1.671875 C 3.550781 -1.515625 3.765625 -1.4375 4.046875 -1.4375 C 4.359375 -1.4375 4.742188 -1.550781 5.203125 -1.78125 Z M 5.203125 -1.78125 "/></g></g></g><g fill="#000000" fill-opacity="1"><g transform="translate(171.987653, 340.428111)"><g><path d="M 1.375 -10.71875 C 1.5625 -10.90625 1.796875 -11 2.078125 -11 C 2.359375 -11 2.585938 -10.90625 2.765625 -10.71875 C 2.953125 -10.53125 3.046875 -10.285156 3.046875 -9.984375 C 3.046875 -9.691406 2.953125 -9.445312 2.765625 -9.25 C 2.585938 -9.0625 2.359375 -8.96875 2.078125 -8.96875 C 1.796875 -8.96875 1.5625 -9.0625 1.375 -9.25 C 1.1875 -9.445312 1.09375 -9.691406 1.09375 -9.984375 C 1.09375 -10.285156 1.1875 -10.53125 1.375 -10.71875 Z M 2.90625 0 L 1.234375 0 L 1.234375 -7.765625 L 2.90625 -7.765625 Z M 2.90625 0 "/></g></g></g><g fill="#000000" fill-opacity="1"><g transform="translate(175.764341, 340.428111)"><g><path d="M 4.5625 -7.828125 C 5.757812 -7.828125 6.734375 -7.460938 7.484375 -6.734375 C 8.234375 -6.003906 8.609375 -5.050781 8.609375 -3.875 C 8.609375 -2.707031 8.234375 -1.757812 7.484375 -1.03125 C 6.734375 -0.300781 5.757812 0.0625 4.5625 0.0625 C 3.363281 0.0625 2.390625 -0.300781 1.640625 -1.03125 C 0.890625 -1.757812 0.515625 -2.707031 0.515625 -3.875 C 0.515625 -5.050781 0.890625 -6.003906 1.640625 -6.734375 C 2.390625 -7.460938 3.363281 -7.828125 4.5625 -7.828125 Z M 4.5625 -6.375 C 3.863281 -6.375 3.289062 -6.140625 2.84375 -5.671875 C 2.40625 -5.203125 2.1875 -4.601562 2.1875 -3.875 C 2.1875 -3.125 2.40625 -2.515625 2.84375 -2.046875 C 3.289062 -1.578125 3.863281 -1.34375 4.5625 -1.34375 C 5.269531 -1.34375 5.84375 -1.578125 6.28125 -2.046875 C 6.71875 -2.515625 6.9375 -3.125 6.9375 -3.875 C 6.9375 -4.601562 6.710938 -5.203125 6.265625 -5.671875 C 5.828125 -6.140625 5.257812 -6.375 4.5625 -6.375 Z M 4.5625 -6.375 "/></g></g></g><g fill="#000000" fill-opacity="1"><g transform="translate(184.513784, 340.428111)"><g><path d="M 5.78125 -7.828125 C 6.6875 -7.828125 7.394531 -7.5625 7.90625 -7.03125 C 8.414062 -6.5 8.671875 -5.765625 8.671875 -4.828125 L 8.671875 0 L 6.984375 0 L 6.984375 -4.359375 C 6.984375 -4.941406 6.816406 -5.398438 6.484375 -5.734375 C 6.160156 -6.078125 5.707031 -6.25 5.125 -6.25 C 4.5 -6.238281 3.988281 -6.035156 3.59375 -5.640625 C 3.195312 -5.253906 2.972656 -4.75 2.921875 -4.125 L 2.921875 0 L 1.234375 0 L 1.234375 -7.765625 L 2.921875 -7.765625 L 2.921875 -6.28125 C 3.441406 -7.3125 4.394531 -7.828125 5.78125 -7.828125 Z M 5.78125 -7.828125 "/></g></g></g><g fill="#000000" fill-opacity="1"><g transform="translate(193.817363, 340.428111)"><g/></g></g><g fill="#000000" fill-opacity="1"><g transform="translate(197.214899, 340.428111)"><g><path d="M 4.5625 -7.828125 C 5.757812 -7.828125 6.734375 -7.460938 7.484375 -6.734375 C 8.234375 -6.003906 8.609375 -5.050781 8.609375 -3.875 C 8.609375 -2.707031 8.234375 -1.757812 7.484375 -1.03125 C 6.734375 -0.300781 5.757812 0.0625 4.5625 0.0625 C 3.363281 0.0625 2.390625 -0.300781 1.640625 -1.03125 C 0.890625 -1.757812 0.515625 -2.707031 0.515625 -3.875 C 0.515625 -5.050781 0.890625 -6.003906 1.640625 -6.734375 C 2.390625 -7.460938 3.363281 -7.828125 4.5625 -7.828125 Z M 4.5625 -6.375 C 3.863281 -6.375 3.289062 -6.140625 2.84375 -5.671875 C 2.40625 -5.203125 2.1875 -4.601562 2.1875 -3.875 C 2.1875 -3.125 2.40625 -2.515625 2.84375 -2.046875 C 3.289062 -1.578125 3.863281 -1.34375 4.5625 -1.34375 C 5.269531 -1.34375 5.84375 -1.578125 6.28125 -2.046875 C 6.71875 -2.515625 6.9375 -3.125 6.9375 -3.875 C 6.9375 -4.601562 6.710938 -5.203125 6.265625 -5.671875 C 5.828125 -6.140625 5.257812 -6.375 4.5625 -6.375 Z M 4.5625 -6.375 "/></g></g></g><g fill="#000000" fill-opacity="1"><g transform="translate(205.964342, 340.428111)"><g><path d="M 4.28125 -9.4375 C 3.976562 -9.4375 3.722656 -9.347656 3.515625 -9.171875 C 3.316406 -9.003906 3.21875 -8.742188 3.21875 -8.390625 L 3.21875 -7.46875 L 5.25 -7.46875 L 5.25 -6.21875 L 3.21875 -6.21875 L 3.21875 0 L 1.5625 0 L 1.5625 -6.21875 L 0.546875 -6.21875 L 0.546875 -7.46875 L 1.5625 -7.46875 L 1.5625 -8.234375 C 1.5625 -9.085938 1.820312 -9.742188 2.34375 -10.203125 C 2.875 -10.671875 3.503906 -10.90625 4.234375 -10.90625 C 4.910156 -10.90625 5.492188 -10.722656 5.984375 -10.359375 L 5.34375 -9.078125 C 5.007812 -9.316406 4.65625 -9.4375 4.28125 -9.4375 Z M 4.28125 -9.4375 "/></g></g></g><g fill="#000000" fill-opacity="1"><g transform="translate(210.60141, 340.428111)"><g/></g></g><g fill="#000000" fill-opacity="1"><g transform="translate(213.998945, 340.428111)"><g><path d="M 5.890625 0 L 5.890625 -0.953125 C 5.335938 -0.265625 4.484375 0.078125 3.328125 0.078125 C 2.503906 0.078125 1.84375 -0.144531 1.34375 -0.59375 C 0.84375 -1.050781 0.59375 -1.628906 0.59375 -2.328125 C 0.59375 -3.046875 0.847656 -3.613281 1.359375 -4.03125 C 1.878906 -4.445312 2.601562 -4.660156 3.53125 -4.671875 L 5.875 -4.671875 L 5.875 -4.90625 C 5.875 -5.394531 5.71875 -5.773438 5.40625 -6.046875 C 5.09375 -6.328125 4.632812 -6.46875 4.03125 -6.46875 C 3.28125 -6.46875 2.515625 -6.203125 1.734375 -5.671875 L 1.046875 -6.84375 C 1.640625 -7.195312 2.171875 -7.445312 2.640625 -7.59375 C 3.117188 -7.75 3.703125 -7.828125 4.390625 -7.828125 C 5.378906 -7.828125 6.144531 -7.582031 6.6875 -7.09375 C 7.238281 -6.613281 7.519531 -5.945312 7.53125 -5.09375 L 7.546875 0 Z M 3.671875 -1.25 C 4.265625 -1.25 4.769531 -1.390625 5.1875 -1.671875 C 5.601562 -1.953125 5.832031 -2.304688 5.875 -2.734375 L 5.875 -3.4375 L 3.78125 -3.4375 C 3.226562 -3.4375 2.820312 -3.359375 2.5625 -3.203125 C 2.300781 -3.046875 2.171875 -2.78125 2.171875 -2.40625 C 2.171875 -2.050781 2.304688 -1.769531 2.578125 -1.5625 C 2.847656 -1.351562 3.210938 -1.25 3.671875 -1.25 Z M 3.671875 -1.25 "/></g></g></g><g fill="#000000" fill-opacity="1"><g transform="translate(222.179654, 340.428111)"><g><path d="M 2.921875 -7.765625 L 2.921875 -6.21875 C 3.453125 -7.289062 4.347656 -7.828125 5.609375 -7.828125 L 5.609375 -6.21875 C 4.835938 -6.257812 4.210938 -6.078125 3.734375 -5.671875 C 3.253906 -5.273438 2.984375 -4.738281 2.921875 -4.0625 L 2.921875 0 L 1.234375 0 L 1.234375 -7.765625 Z M 2.921875 -7.765625 "/></g></g></g><g fill="#000000" fill-opacity="1"><g transform="translate(227.560455, 340.428111)"><g><path d="M 5.203125 -1.78125 L 5.640625 -0.5 C 4.992188 -0.113281 4.351562 0.078125 3.71875 0.078125 C 3.082031 0.078125 2.5625 -0.109375 2.15625 -0.484375 C 1.75 -0.867188 1.546875 -1.4375 1.546875 -2.1875 L 1.546875 -6.21875 L 0.453125 -6.21875 L 0.453125 -7.46875 L 1.546875 -7.46875 L 1.546875 -9.609375 L 3.203125 -9.609375 L 3.203125 -7.46875 L 5.5 -7.46875 L 5.5 -6.21875 L 3.203125 -6.21875 L 3.203125 -2.5 C 3.203125 -2.101562 3.269531 -1.828125 3.40625 -1.671875 C 3.550781 -1.515625 3.765625 -1.4375 4.046875 -1.4375 C 4.359375 -1.4375 4.742188 -1.550781 5.203125 -1.78125 Z M 5.203125 -1.78125 "/></g></g></g><g fill="#000000" fill-opacity="1"><g transform="translate(233.130825, 340.428111)"><g><path d="M 10.28125 0 L 8.53125 0 L 6.5625 -5.75 L 4.59375 0 L 2.875 0 L 0.015625 -7.765625 L 1.734375 -7.765625 L 3.75 -1.65625 L 5.703125 -7.765625 L 7.4375 -7.765625 L 9.40625 -1.65625 L 11.390625 -7.765625 L 13.109375 -7.765625 Z M 10.28125 0 "/></g></g></g><g fill="#000000" fill-opacity="1"><g transform="translate(245.788462, 340.428111)"><g><path d="M 4.5625 -7.828125 C 5.757812 -7.828125 6.734375 -7.460938 7.484375 -6.734375 C 8.234375 -6.003906 8.609375 -5.050781 8.609375 -3.875 C 8.609375 -2.707031 8.234375 -1.757812 7.484375 -1.03125 C 6.734375 -0.300781 5.757812 0.0625 4.5625 0.0625 C 3.363281 0.0625 2.390625 -0.300781 1.640625 -1.03125 C 0.890625 -1.757812 0.515625 -2.707031 0.515625 -3.875 C 0.515625 -5.050781 0.890625 -6.003906 1.640625 -6.734375 C 2.390625 -7.460938 3.363281 -7.828125 4.5625 -7.828125 Z M 4.5625 -6.375 C 3.863281 -6.375 3.289062 -6.140625 2.84375 -5.671875 C 2.40625 -5.203125 2.1875 -4.601562 2.1875 -3.875 C 2.1875 -3.125 2.40625 -2.515625 2.84375 -2.046875 C 3.289062 -1.578125 3.863281 -1.34375 4.5625 -1.34375 C 5.269531 -1.34375 5.84375 -1.578125 6.28125 -2.046875 C 6.71875 -2.515625 6.9375 -3.125 6.9375 -3.875 C 6.9375 -4.601562 6.710938 -5.203125 6.265625 -5.671875 C 5.828125 -6.140625 5.257812 -6.375 4.5625 -6.375 Z M 4.5625 -6.375 "/></g></g></g><g fill="#000000" fill-opacity="1"><g transform="translate(254.537905, 340.428111)"><g><path d="M 2.921875 -7.765625 L 2.921875 -6.21875 C 3.453125 -7.289062 4.347656 -7.828125 5.609375 -7.828125 L 5.609375 -6.21875 C 4.835938 -6.257812 4.210938 -6.078125 3.734375 -5.671875 C 3.253906 -5.273438 2.984375 -4.738281 2.921875 -4.0625 L 2.921875 0 L 1.234375 0 L 1.234375 -7.765625 Z M 2.921875 -7.765625 "/></g></g></g><g fill="#000000" fill-opacity="1"><g transform="translate(259.918706, 340.428111)"><g><path d="M 4.3125 -3.5625 L 2.984375 -2.171875 L 2.984375 0 L 1.3125 0 L 1.3125 -10.828125 L 2.984375 -10.828125 L 2.984375 -4.296875 L 6.421875 -7.765625 L 8.34375 -7.765625 L 5.46875 -4.75 L 8.5625 0 L 6.578125 0 Z M 4.3125 -3.5625 "/></g></g></g><g fill="#000000" fill-opacity="1"><g transform="translate(268.230659, 340.428111)"><g><path d="M 3.5625 -7.84375 C 4.632812 -7.84375 5.539062 -7.578125 6.28125 -7.046875 L 5.65625 -5.8125 C 4.914062 -6.269531 4.171875 -6.5 3.421875 -6.5 C 2.671875 -6.5 2.296875 -6.238281 2.296875 -5.71875 C 2.296875 -5.46875 2.4375 -5.257812 2.71875 -5.09375 C 3 -4.925781 3.335938 -4.785156 3.734375 -4.671875 C 4.140625 -4.566406 4.546875 -4.4375 4.953125 -4.28125 C 5.359375 -4.132812 5.703125 -3.890625 5.984375 -3.546875 C 6.265625 -3.203125 6.40625 -2.769531 6.40625 -2.25 C 6.40625 -1.5 6.117188 -0.925781 5.546875 -0.53125 C 4.984375 -0.132812 4.273438 0.0625 3.421875 0.0625 C 2.835938 0.0625 2.265625 -0.03125 1.703125 -0.21875 C 1.148438 -0.414062 0.6875 -0.679688 0.3125 -1.015625 L 0.90625 -2.21875 C 1.238281 -1.925781 1.644531 -1.691406 2.125 -1.515625 C 2.601562 -1.335938 3.0625 -1.25 3.5 -1.25 C 3.882812 -1.25 4.191406 -1.316406 4.421875 -1.453125 C 4.648438 -1.585938 4.765625 -1.800781 4.765625 -2.09375 C 4.765625 -2.382812 4.625 -2.613281 4.34375 -2.78125 C 4.0625 -2.957031 3.722656 -3.097656 3.328125 -3.203125 C 2.929688 -3.316406 2.53125 -3.445312 2.125 -3.59375 C 1.726562 -3.738281 1.390625 -3.976562 1.109375 -4.3125 C 0.835938 -4.644531 0.703125 -5.070312 0.703125 -5.59375 C 0.703125 -6.332031 0.972656 -6.890625 1.515625 -7.265625 C 2.066406 -7.648438 2.75 -7.84375 3.5625 -7.84375 Z M 3.5625 -7.84375 "/></g></g></g><g fill="#000000" fill-opacity="1"><g transform="translate(274.719761, 340.428111)"><g/></g></g><g fill="#000000" fill-opacity="1"><g transform="translate(278.117297, 340.428111)"><g><path d="M 2.921875 -7.765625 L 2.921875 -6.21875 C 3.453125 -7.289062 4.347656 -7.828125 5.609375 -7.828125 L 5.609375 -6.21875 C 4.835938 -6.257812 4.210938 -6.078125 3.734375 -5.671875 C 3.253906 -5.273438 2.984375 -4.738281 2.921875 -4.0625 L 2.921875 0 L 1.234375 0 L 1.234375 -7.765625 Z M 2.921875 -7.765625 "/></g></g></g><g fill="#000000" fill-opacity="1"><g transform="translate(283.498085, 340.428111)"><g><path d="M 4.4375 -7.828125 C 5.769531 -7.828125 6.734375 -7.425781 7.328125 -6.625 C 7.929688 -5.820312 8.179688 -4.691406 8.078125 -3.234375 L 2.203125 -3.234375 C 2.335938 -2.628906 2.617188 -2.15625 3.046875 -1.8125 C 3.472656 -1.46875 3.992188 -1.296875 4.609375 -1.296875 C 5.484375 -1.296875 6.210938 -1.597656 6.796875 -2.203125 L 7.6875 -1.25 C 6.894531 -0.375 5.828125 0.0625 4.484375 0.0625 C 3.285156 0.0625 2.320312 -0.296875 1.59375 -1.015625 C 0.875 -1.742188 0.515625 -2.691406 0.515625 -3.859375 C 0.515625 -5.035156 0.878906 -5.988281 1.609375 -6.71875 C 2.335938 -7.445312 3.28125 -7.816406 4.4375 -7.828125 Z M 2.171875 -4.46875 L 6.609375 -4.46875 C 6.578125 -5.09375 6.367188 -5.582031 5.984375 -5.9375 C 5.597656 -6.300781 5.085938 -6.484375 4.453125 -6.484375 C 3.835938 -6.484375 3.328125 -6.300781 2.921875 -5.9375 C 2.523438 -5.582031 2.273438 -5.09375 2.171875 -4.46875 Z M 2.171875 -4.46875 "/></g></g></g><g fill="#000000" fill-opacity="1"><g transform="translate(291.707948, 340.428111)"><g><path d="M 5.703125 -7.828125 C 6.804688 -7.828125 7.695312 -7.457031 8.375 -6.71875 C 9.0625 -5.988281 9.40625 -5.035156 9.40625 -3.859375 C 9.40625 -2.679688 9.070312 -1.734375 8.40625 -1.015625 C 7.738281 -0.296875 6.847656 0.0625 5.734375 0.0625 C 4.492188 0.0625 3.578125 -0.40625 2.984375 -1.34375 L 2.984375 0 L 1.3125 0 L 1.3125 -10.828125 L 2.984375 -10.828125 L 2.984375 -6.421875 C 3.578125 -7.359375 4.484375 -7.828125 5.703125 -7.828125 Z M 3.640625 -2.078125 C 4.085938 -1.609375 4.65625 -1.375 5.34375 -1.375 C 6.039062 -1.375 6.609375 -1.609375 7.046875 -2.078125 C 7.492188 -2.546875 7.71875 -3.15625 7.71875 -3.90625 C 7.71875 -4.632812 7.492188 -5.234375 7.046875 -5.703125 C 6.609375 -6.179688 6.039062 -6.421875 5.34375 -6.421875 C 4.65625 -6.421875 4.085938 -6.179688 3.640625 -5.703125 C 3.203125 -5.234375 2.984375 -4.632812 2.984375 -3.90625 C 2.984375 -3.15625 3.203125 -2.546875 3.640625 -2.078125 Z M 3.640625 -2.078125 "/></g></g></g><g fill="#000000" fill-opacity="1"><g transform="translate(301.259434, 340.428111)"><g><path d="M 8.296875 -7.765625 L 8.296875 0 L 6.609375 0 L 6.609375 -1.515625 C 6.109375 -0.484375 5.1875 0.0390625 3.84375 0.0625 C 2.957031 0.0625 2.257812 -0.203125 1.75 -0.734375 C 1.25 -1.273438 1 -2.007812 1 -2.9375 L 1 -7.765625 L 2.671875 -7.765625 L 2.671875 -3.40625 C 2.671875 -2.820312 2.832031 -2.359375 3.15625 -2.015625 C 3.476562 -1.679688 3.921875 -1.515625 4.484375 -1.515625 C 5.128906 -1.523438 5.644531 -1.753906 6.03125 -2.203125 C 6.414062 -2.660156 6.609375 -3.238281 6.609375 -3.9375 L 6.609375 -7.765625 Z M 8.296875 -7.765625 "/></g></g></g><g fill="#000000" fill-opacity="1"><g transform="translate(310.417197, 340.428111)"><g><path d="M 1.375 -10.71875 C 1.5625 -10.90625 1.796875 -11 2.078125 -11 C 2.359375 -11 2.585938 -10.90625 2.765625 -10.71875 C 2.953125 -10.53125 3.046875 -10.285156 3.046875 -9.984375 C 3.046875 -9.691406 2.953125 -9.445312 2.765625 -9.25 C 2.585938 -9.0625 2.359375 -8.96875 2.078125 -8.96875 C 1.796875 -8.96875 1.5625 -9.0625 1.375 -9.25 C 1.1875 -9.445312 1.09375 -9.691406 1.09375 -9.984375 C 1.09375 -10.285156 1.1875 -10.53125 1.375 -10.71875 Z M 2.90625 0 L 1.234375 0 L 1.234375 -7.765625 L 2.90625 -7.765625 Z M 2.90625 0 "/></g></g></g><g fill="#000000" fill-opacity="1"><g transform="translate(314.193885, 340.428111)"><g><path d="M 2.984375 0 L 1.3125 0 L 1.3125 -10.828125 L 2.984375 -10.828125 Z M 2.984375 0 "/></g></g></g><g fill="#000000" fill-opacity="1"><g transform="translate(318.130973, 340.428111)"><g><path d="M 8.640625 -10.828125 L 8.640625 0 L 6.96875 0 L 6.96875 -1.328125 C 6.382812 -0.390625 5.472656 0.078125 4.234375 0.078125 C 3.117188 0.078125 2.21875 -0.285156 1.53125 -1.015625 C 0.851562 -1.753906 0.515625 -2.71875 0.515625 -3.90625 C 0.515625 -5.070312 0.851562 -6.019531 1.53125 -6.75 C 2.207031 -7.476562 3.097656 -7.84375 4.203125 -7.84375 C 5.453125 -7.84375 6.375 -7.367188 6.96875 -6.421875 L 6.96875 -10.828125 Z M 2.859375 -2.03125 C 3.304688 -1.5625 3.878906 -1.328125 4.578125 -1.328125 C 5.285156 -1.328125 5.859375 -1.5625 6.296875 -2.03125 C 6.742188 -2.507812 6.96875 -3.117188 6.96875 -3.859375 C 6.96875 -4.597656 6.742188 -5.207031 6.296875 -5.6875 C 5.859375 -6.164062 5.285156 -6.40625 4.578125 -6.40625 C 3.878906 -6.40625 3.304688 -6.164062 2.859375 -5.6875 C 2.421875 -5.207031 2.195312 -4.597656 2.1875 -3.859375 C 2.195312 -3.117188 2.421875 -2.507812 2.859375 -2.03125 Z M 2.859375 -2.03125 "/></g></g></g><g fill="#000000" fill-opacity="1"><g transform="translate(327.711627, 340.428111)"><g><path d="M 1.375 -10.71875 C 1.5625 -10.90625 1.796875 -11 2.078125 -11 C 2.359375 -11 2.585938 -10.90625 2.765625 -10.71875 C 2.953125 -10.53125 3.046875 -10.285156 3.046875 -9.984375 C 3.046875 -9.691406 2.953125 -9.445312 2.765625 -9.25 C 2.585938 -9.0625 2.359375 -8.96875 2.078125 -8.96875 C 1.796875 -8.96875 1.5625 -9.0625 1.375 -9.25 C 1.1875 -9.445312 1.09375 -9.691406 1.09375 -9.984375 C 1.09375 -10.285156 1.1875 -10.53125 1.375 -10.71875 Z M 2.90625 0 L 1.234375 0 L 1.234375 -7.765625 L 2.90625 -7.765625 Z M 2.90625 0 "/></g></g></g><g fill="#000000" fill-opacity="1"><g transform="translate(331.488315, 340.428111)"><g><path d="M 5.78125 -7.828125 C 6.6875 -7.828125 7.394531 -7.5625 7.90625 -7.03125 C 8.414062 -6.5 8.671875 -5.765625 8.671875 -4.828125 L 8.671875 0 L 6.984375 0 L 6.984375 -4.359375 C 6.984375 -4.941406 6.816406 -5.398438 6.484375 -5.734375 C 6.160156 -6.078125 5.707031 -6.25 5.125 -6.25 C 4.5 -6.238281 3.988281 -6.035156 3.59375 -5.640625 C 3.195312 -5.253906 2.972656 -4.75 2.921875 -4.125 L 2.921875 0 L 1.234375 0 L 1.234375 -7.765625 L 2.921875 -7.765625 L 2.921875 -6.28125 C 3.441406 -7.3125 4.394531 -7.828125 5.78125 -7.828125 Z M 5.78125 -7.828125 "/></g></g></g><g fill="#000000" fill-opacity="1"><g transform="translate(340.791894, 340.428111)"><g><path d="M 8.25 -7.765625 L 8.25 -0.765625 C 8.25 0.347656 7.882812 1.234375 7.15625 1.890625 C 6.425781 2.546875 5.445312 2.875 4.21875 2.875 C 3.070312 2.875 2 2.535156 1 1.859375 L 1.703125 0.640625 C 2.460938 1.203125 3.273438 1.484375 4.140625 1.484375 C 4.878906 1.484375 5.46875 1.285156 5.90625 0.890625 C 6.351562 0.492188 6.578125 -0.0390625 6.578125 -0.71875 L 6.578125 -1.6875 C 6.035156 -0.8125 5.179688 -0.375 4.015625 -0.375 C 2.960938 -0.375 2.113281 -0.71875 1.46875 -1.40625 C 0.832031 -2.101562 0.515625 -3.007812 0.515625 -4.125 C 0.515625 -5.226562 0.828125 -6.117188 1.453125 -6.796875 C 2.085938 -7.472656 2.921875 -7.816406 3.953125 -7.828125 C 5.140625 -7.835938 6.015625 -7.398438 6.578125 -6.515625 L 6.578125 -7.765625 Z M 4.34375 -1.6875 C 5 -1.6875 5.535156 -1.910156 5.953125 -2.359375 C 6.367188 -2.804688 6.578125 -3.378906 6.578125 -4.078125 C 6.578125 -4.785156 6.367188 -5.359375 5.953125 -5.796875 C 5.546875 -6.242188 5.007812 -6.46875 4.34375 -6.46875 C 3.6875 -6.46875 3.144531 -6.242188 2.71875 -5.796875 C 2.300781 -5.359375 2.09375 -4.789062 2.09375 -4.09375 C 2.09375 -3.382812 2.300781 -2.804688 2.71875 -2.359375 C 3.132812 -1.910156 3.675781 -1.6875 4.34375 -1.6875 Z M 4.34375 -1.6875 "/></g></g></g><g fill="#000000" fill-opacity="1"><g transform="translate(52.136402, 360.22811)"><g><path d="M 3.5625 -7.84375 C 4.632812 -7.84375 5.539062 -7.578125 6.28125 -7.046875 L 5.65625 -5.8125 C 4.914062 -6.269531 4.171875 -6.5 3.421875 -6.5 C 2.671875 -6.5 2.296875 -6.238281 2.296875 -5.71875 C 2.296875 -5.46875 2.4375 -5.257812 2.71875 -5.09375 C 3 -4.925781 3.335938 -4.785156 3.734375 -4.671875 C 4.140625 -4.566406 4.546875 -4.4375 4.953125 -4.28125 C 5.359375 -4.132812 5.703125 -3.890625 5.984375 -3.546875 C 6.265625 -3.203125 6.40625 -2.769531 6.40625 -2.25 C 6.40625 -1.5 6.117188 -0.925781 5.546875 -0.53125 C 4.984375 -0.132812 4.273438 0.0625 3.421875 0.0625 C 2.835938 0.0625 2.265625 -0.03125 1.703125 -0.21875 C 1.148438 -0.414062 0.6875 -0.679688 0.3125 -1.015625 L 0.90625 -2.21875 C 1.238281 -1.925781 1.644531 -1.691406 2.125 -1.515625 C 2.601562 -1.335938 3.0625 -1.25 3.5 -1.25 C 3.882812 -1.25 4.191406 -1.316406 4.421875 -1.453125 C 4.648438 -1.585938 4.765625 -1.800781 4.765625 -2.09375 C 4.765625 -2.382812 4.625 -2.613281 4.34375 -2.78125 C 4.0625 -2.957031 3.722656 -3.097656 3.328125 -3.203125 C 2.929688 -3.316406 2.53125 -3.445312 2.125 -3.59375 C 1.726562 -3.738281 1.390625 -3.976562 1.109375 -4.3125 C 0.835938 -4.644531 0.703125 -5.070312 0.703125 -5.59375 C 0.703125 -6.332031 0.972656 -6.890625 1.515625 -7.265625 C 2.066406 -7.648438 2.75 -7.84375 3.5625 -7.84375 Z M 3.5625 -7.84375 "/></g></g></g><g fill="#000000" fill-opacity="1"><g transform="translate(58.625502, 360.22811)"><g><path d="M 4.421875 -7.828125 C 5.828125 -7.828125 6.894531 -7.398438 7.625 -6.546875 L 6.71875 -5.46875 C 6.132812 -6.0625 5.394531 -6.351562 4.5 -6.34375 C 3.820312 -6.34375 3.265625 -6.113281 2.828125 -5.65625 C 2.398438 -5.195312 2.1875 -4.597656 2.1875 -3.859375 C 2.1875 -3.128906 2.398438 -2.535156 2.828125 -2.078125 C 3.265625 -1.617188 3.820312 -1.390625 4.5 -1.390625 C 5.488281 -1.390625 6.25 -1.703125 6.78125 -2.328125 L 7.71875 -1.390625 C 6.988281 -0.421875 5.890625 0.0625 4.421875 0.0625 C 3.265625 0.0625 2.320312 -0.296875 1.59375 -1.015625 C 0.875 -1.742188 0.515625 -2.695312 0.515625 -3.875 C 0.515625 -5.050781 0.875 -6.003906 1.59375 -6.734375 C 2.320312 -7.460938 3.265625 -7.828125 4.421875 -7.828125 Z M 4.421875 -7.828125 "/></g></g></g><g fill="#000000" fill-opacity="1"><g transform="translate(66.48538, 360.22811)"><g><path d="M 4.4375 -7.828125 C 5.769531 -7.828125 6.734375 -7.425781 7.328125 -6.625 C 7.929688 -5.820312 8.179688 -4.691406 8.078125 -3.234375 L 2.203125 -3.234375 C 2.335938 -2.628906 2.617188 -2.15625 3.046875 -1.8125 C 3.472656 -1.46875 3.992188 -1.296875 4.609375 -1.296875 C 5.484375 -1.296875 6.210938 -1.597656 6.796875 -2.203125 L 7.6875 -1.25 C 6.894531 -0.375 5.828125 0.0625 4.484375 0.0625 C 3.285156 0.0625 2.320312 -0.296875 1.59375 -1.015625 C 0.875 -1.742188 0.515625 -2.691406 0.515625 -3.859375 C 0.515625 -5.035156 0.878906 -5.988281 1.609375 -6.71875 C 2.335938 -7.445312 3.28125 -7.816406 4.4375 -7.828125 Z M 2.171875 -4.46875 L 6.609375 -4.46875 C 6.578125 -5.09375 6.367188 -5.582031 5.984375 -5.9375 C 5.597656 -6.300781 5.085938 -6.484375 4.453125 -6.484375 C 3.835938 -6.484375 3.328125 -6.300781 2.921875 -5.9375 C 2.523438 -5.582031 2.273438 -5.09375 2.171875 -4.46875 Z M 2.171875 -4.46875 "/></g></g></g><g fill="#000000" fill-opacity="1"><g transform="translate(74.695255, 360.22811)"><g><path d="M 5.78125 -7.828125 C 6.6875 -7.828125 7.394531 -7.5625 7.90625 -7.03125 C 8.414062 -6.5 8.671875 -5.765625 8.671875 -4.828125 L 8.671875 0 L 6.984375 0 L 6.984375 -4.359375 C 6.984375 -4.941406 6.816406 -5.398438 6.484375 -5.734375 C 6.160156 -6.078125 5.707031 -6.25 5.125 -6.25 C 4.5 -6.238281 3.988281 -6.035156 3.59375 -5.640625 C 3.195312 -5.253906 2.972656 -4.75 2.921875 -4.125 L 2.921875 0 L 1.234375 0 L 1.234375 -7.765625 L 2.921875 -7.765625 L 2.921875 -6.28125 C 3.441406 -7.3125 4.394531 -7.828125 5.78125 -7.828125 Z M 5.78125 -7.828125 "/></g></g></g><g fill="#000000" fill-opacity="1"><g transform="translate(83.998833, 360.22811)"><g><path d="M 4.4375 -7.828125 C 5.769531 -7.828125 6.734375 -7.425781 7.328125 -6.625 C 7.929688 -5.820312 8.179688 -4.691406 8.078125 -3.234375 L 2.203125 -3.234375 C 2.335938 -2.628906 2.617188 -2.15625 3.046875 -1.8125 C 3.472656 -1.46875 3.992188 -1.296875 4.609375 -1.296875 C 5.484375 -1.296875 6.210938 -1.597656 6.796875 -2.203125 L 7.6875 -1.25 C 6.894531 -0.375 5.828125 0.0625 4.484375 0.0625 C 3.285156 0.0625 2.320312 -0.296875 1.59375 -1.015625 C 0.875 -1.742188 0.515625 -2.691406 0.515625 -3.859375 C 0.515625 -5.035156 0.878906 -5.988281 1.609375 -6.71875 C 2.335938 -7.445312 3.28125 -7.816406 4.4375 -7.828125 Z M 2.171875 -4.46875 L 6.609375 -4.46875 C 6.578125 -5.09375 6.367188 -5.582031 5.984375 -5.9375 C 5.597656 -6.300781 5.085938 -6.484375 4.453125 -6.484375 C 3.835938 -6.484375 3.328125 -6.300781 2.921875 -5.9375 C 2.523438 -5.582031 2.273438 -5.09375 2.171875 -4.46875 Z M 2.171875 -4.46875 "/></g></g></g><g fill="#000000" fill-opacity="1"><g transform="translate(92.208709, 360.22811)"><g><path d="M 3.5625 -7.84375 C 4.632812 -7.84375 5.539062 -7.578125 6.28125 -7.046875 L 5.65625 -5.8125 C 4.914062 -6.269531 4.171875 -6.5 3.421875 -6.5 C 2.671875 -6.5 2.296875 -6.238281 2.296875 -5.71875 C 2.296875 -5.46875 2.4375 -5.257812 2.71875 -5.09375 C 3 -4.925781 3.335938 -4.785156 3.734375 -4.671875 C 4.140625 -4.566406 4.546875 -4.4375 4.953125 -4.28125 C 5.359375 -4.132812 5.703125 -3.890625 5.984375 -3.546875 C 6.265625 -3.203125 6.40625 -2.769531 6.40625 -2.25 C 6.40625 -1.5 6.117188 -0.925781 5.546875 -0.53125 C 4.984375 -0.132812 4.273438 0.0625 3.421875 0.0625 C 2.835938 0.0625 2.265625 -0.03125 1.703125 -0.21875 C 1.148438 -0.414062 0.6875 -0.679688 0.3125 -1.015625 L 0.90625 -2.21875 C 1.238281 -1.925781 1.644531 -1.691406 2.125 -1.515625 C 2.601562 -1.335938 3.0625 -1.25 3.5 -1.25 C 3.882812 -1.25 4.191406 -1.316406 4.421875 -1.453125 C 4.648438 -1.585938 4.765625 -1.800781 4.765625 -2.09375 C 4.765625 -2.382812 4.625 -2.613281 4.34375 -2.78125 C 4.0625 -2.957031 3.722656 -3.097656 3.328125 -3.203125 C 2.929688 -3.316406 2.53125 -3.445312 2.125 -3.59375 C 1.726562 -3.738281 1.390625 -3.976562 1.109375 -4.3125 C 0.835938 -4.644531 0.703125 -5.070312 0.703125 -5.59375 C 0.703125 -6.332031 0.972656 -6.890625 1.515625 -7.265625 C 2.066406 -7.648438 2.75 -7.84375 3.5625 -7.84375 Z M 3.5625 -7.84375 "/></g></g></g><g fill="#000000" fill-opacity="1"><g transform="translate(98.697808, 360.22811)"><g/></g></g><g fill="#000000" fill-opacity="1"><g transform="translate(102.09534, 360.22811)"><g><path d="M 4.28125 -9.4375 C 3.976562 -9.4375 3.722656 -9.347656 3.515625 -9.171875 C 3.316406 -9.003906 3.21875 -8.742188 3.21875 -8.390625 L 3.21875 -7.46875 L 5.25 -7.46875 L 5.25 -6.21875 L 3.21875 -6.21875 L 3.21875 0 L 1.5625 0 L 1.5625 -6.21875 L 0.546875 -6.21875 L 0.546875 -7.46875 L 1.5625 -7.46875 L 1.5625 -8.234375 C 1.5625 -9.085938 1.820312 -9.742188 2.34375 -10.203125 C 2.875 -10.671875 3.503906 -10.90625 4.234375 -10.90625 C 4.910156 -10.90625 5.492188 -10.722656 5.984375 -10.359375 L 5.34375 -9.078125 C 5.007812 -9.316406 4.65625 -9.4375 4.28125 -9.4375 Z M 4.28125 -9.4375 "/></g></g></g><g fill="#000000" fill-opacity="1"><g transform="translate(106.732405, 360.22811)"><g><path d="M 2.921875 -7.765625 L 2.921875 -6.21875 C 3.453125 -7.289062 4.347656 -7.828125 5.609375 -7.828125 L 5.609375 -6.21875 C 4.835938 -6.257812 4.210938 -6.078125 3.734375 -5.671875 C 3.253906 -5.273438 2.984375 -4.738281 2.921875 -4.0625 L 2.921875 0 L 1.234375 0 L 1.234375 -7.765625 Z M 2.921875 -7.765625 "/></g></g></g><g fill="#000000" fill-opacity="1"><g transform="translate(112.113203, 360.22811)"><g><path d="M 4.5625 -7.828125 C 5.757812 -7.828125 6.734375 -7.460938 7.484375 -6.734375 C 8.234375 -6.003906 8.609375 -5.050781 8.609375 -3.875 C 8.609375 -2.707031 8.234375 -1.757812 7.484375 -1.03125 C 6.734375 -0.300781 5.757812 0.0625 4.5625 0.0625 C 3.363281 0.0625 2.390625 -0.300781 1.640625 -1.03125 C 0.890625 -1.757812 0.515625 -2.707031 0.515625 -3.875 C 0.515625 -5.050781 0.890625 -6.003906 1.640625 -6.734375 C 2.390625 -7.460938 3.363281 -7.828125 4.5625 -7.828125 Z M 4.5625 -6.375 C 3.863281 -6.375 3.289062 -6.140625 2.84375 -5.671875 C 2.40625 -5.203125 2.1875 -4.601562 2.1875 -3.875 C 2.1875 -3.125 2.40625 -2.515625 2.84375 -2.046875 C 3.289062 -1.578125 3.863281 -1.34375 4.5625 -1.34375 C 5.269531 -1.34375 5.84375 -1.578125 6.28125 -2.046875 C 6.71875 -2.515625 6.9375 -3.125 6.9375 -3.875 C 6.9375 -4.601562 6.710938 -5.203125 6.265625 -5.671875 C 5.828125 -6.140625 5.257812 -6.375 4.5625 -6.375 Z M 4.5625 -6.375 "/></g></g></g><g fill="#000000" fill-opacity="1"><g transform="translate(120.862646, 360.22811)"><g><path d="M 11.375 -7.828125 C 12.257812 -7.828125 12.953125 -7.554688 13.453125 -7.015625 C 13.960938 -6.484375 14.21875 -5.753906 14.21875 -4.828125 L 14.21875 0 L 12.53125 0 L 12.53125 -4.359375 C 12.53125 -4.953125 12.367188 -5.414062 12.046875 -5.75 C 11.722656 -6.09375 11.273438 -6.265625 10.703125 -6.265625 C 10.046875 -6.242188 9.523438 -6.003906 9.140625 -5.546875 C 8.753906 -5.097656 8.5625 -4.53125 8.5625 -3.84375 L 8.5625 0 L 6.890625 0 L 6.890625 -4.359375 C 6.890625 -4.953125 6.722656 -5.414062 6.390625 -5.75 C 6.066406 -6.09375 5.625 -6.265625 5.0625 -6.265625 C 4.40625 -6.242188 3.878906 -6.003906 3.484375 -5.546875 C 3.097656 -5.097656 2.90625 -4.53125 2.90625 -3.84375 L 2.90625 0 L 1.234375 0 L 1.234375 -7.765625 L 2.90625 -7.765625 L 2.90625 -6.265625 C 3.414062 -7.304688 4.351562 -7.828125 5.71875 -7.828125 C 6.40625 -7.828125 6.976562 -7.660156 7.4375 -7.328125 C 7.90625 -7.003906 8.234375 -6.546875 8.421875 -5.953125 C 8.898438 -7.203125 9.882812 -7.828125 11.375 -7.828125 Z M 11.375 -7.828125 "/></g></g></g><g fill="#000000" fill-opacity="1"><g transform="translate(135.707715, 360.22811)"><g/></g></g><g fill="#000000" fill-opacity="1"><g transform="translate(139.105251, 360.22811)"><g><path d="M 5.890625 0 L 5.890625 -0.953125 C 5.335938 -0.265625 4.484375 0.078125 3.328125 0.078125 C 2.503906 0.078125 1.84375 -0.144531 1.34375 -0.59375 C 0.84375 -1.050781 0.59375 -1.628906 0.59375 -2.328125 C 0.59375 -3.046875 0.847656 -3.613281 1.359375 -4.03125 C 1.878906 -4.445312 2.601562 -4.660156 3.53125 -4.671875 L 5.875 -4.671875 L 5.875 -4.90625 C 5.875 -5.394531 5.71875 -5.773438 5.40625 -6.046875 C 5.09375 -6.328125 4.632812 -6.46875 4.03125 -6.46875 C 3.28125 -6.46875 2.515625 -6.203125 1.734375 -5.671875 L 1.046875 -6.84375 C 1.640625 -7.195312 2.171875 -7.445312 2.640625 -7.59375 C 3.117188 -7.75 3.703125 -7.828125 4.390625 -7.828125 C 5.378906 -7.828125 6.144531 -7.582031 6.6875 -7.09375 C 7.238281 -6.613281 7.519531 -5.945312 7.53125 -5.09375 L 7.546875 0 Z M 3.671875 -1.25 C 4.265625 -1.25 4.769531 -1.390625 5.1875 -1.671875 C 5.601562 -1.953125 5.832031 -2.304688 5.875 -2.734375 L 5.875 -3.4375 L 3.78125 -3.4375 C 3.226562 -3.4375 2.820312 -3.359375 2.5625 -3.203125 C 2.300781 -3.046875 2.171875 -2.78125 2.171875 -2.40625 C 2.171875 -2.050781 2.304688 -1.769531 2.578125 -1.5625 C 2.847656 -1.351562 3.210938 -1.25 3.671875 -1.25 Z M 3.671875 -1.25 "/></g></g></g><g fill="#000000" fill-opacity="1"><g transform="translate(147.285959, 360.22811)"><g><path d="M 5.78125 -7.828125 C 6.6875 -7.828125 7.394531 -7.5625 7.90625 -7.03125 C 8.414062 -6.5 8.671875 -5.765625 8.671875 -4.828125 L 8.671875 0 L 6.984375 0 L 6.984375 -4.359375 C 6.984375 -4.941406 6.816406 -5.398438 6.484375 -5.734375 C 6.160156 -6.078125 5.707031 -6.25 5.125 -6.25 C 4.5 -6.238281 3.988281 -6.035156 3.59375 -5.640625 C 3.195312 -5.253906 2.972656 -4.75 2.921875 -4.125 L 2.921875 0 L 1.234375 0 L 1.234375 -7.765625 L 2.921875 -7.765625 L 2.921875 -6.28125 C 3.441406 -7.3125 4.394531 -7.828125 5.78125 -7.828125 Z M 5.78125 -7.828125 "/></g></g></g><g fill="#000000" fill-opacity="1"><g transform="translate(156.589538, 360.22811)"><g><path d="M 4.421875 -7.828125 C 5.828125 -7.828125 6.894531 -7.398438 7.625 -6.546875 L 6.71875 -5.46875 C 6.132812 -6.0625 5.394531 -6.351562 4.5 -6.34375 C 3.820312 -6.34375 3.265625 -6.113281 2.828125 -5.65625 C 2.398438 -5.195312 2.1875 -4.597656 2.1875 -3.859375 C 2.1875 -3.128906 2.398438 -2.535156 2.828125 -2.078125 C 3.265625 -1.617188 3.820312 -1.390625 4.5 -1.390625 C 5.488281 -1.390625 6.25 -1.703125 6.78125 -2.328125 L 7.71875 -1.390625 C 6.988281 -0.421875 5.890625 0.0625 4.421875 0.0625 C 3.265625 0.0625 2.320312 -0.296875 1.59375 -1.015625 C 0.875 -1.742188 0.515625 -2.695312 0.515625 -3.875 C 0.515625 -5.050781 0.875 -6.003906 1.59375 -6.734375 C 2.320312 -7.460938 3.265625 -7.828125 4.421875 -7.828125 Z M 4.421875 -7.828125 "/></g></g></g><g fill="#000000" fill-opacity="1"><g transform="translate(164.449418, 360.22811)"><g><path d="M 1.375 -10.71875 C 1.5625 -10.90625 1.796875 -11 2.078125 -11 C 2.359375 -11 2.585938 -10.90625 2.765625 -10.71875 C 2.953125 -10.53125 3.046875 -10.285156 3.046875 -9.984375 C 3.046875 -9.691406 2.953125 -9.445312 2.765625 -9.25 C 2.585938 -9.0625 2.359375 -8.96875 2.078125 -8.96875 C 1.796875 -8.96875 1.5625 -9.0625 1.375 -9.25 C 1.1875 -9.445312 1.09375 -9.691406 1.09375 -9.984375 C 1.09375 -10.285156 1.1875 -10.53125 1.375 -10.71875 Z M 2.90625 0 L 1.234375 0 L 1.234375 -7.765625 L 2.90625 -7.765625 Z M 2.90625 0 "/></g></g></g><g fill="#000000" fill-opacity="1"><g transform="translate(168.226099, 360.22811)"><g><path d="M 4.4375 -7.828125 C 5.769531 -7.828125 6.734375 -7.425781 7.328125 -6.625 C 7.929688 -5.820312 8.179688 -4.691406 8.078125 -3.234375 L 2.203125 -3.234375 C 2.335938 -2.628906 2.617188 -2.15625 3.046875 -1.8125 C 3.472656 -1.46875 3.992188 -1.296875 4.609375 -1.296875 C 5.484375 -1.296875 6.210938 -1.597656 6.796875 -2.203125 L 7.6875 -1.25 C 6.894531 -0.375 5.828125 0.0625 4.484375 0.0625 C 3.285156 0.0625 2.320312 -0.296875 1.59375 -1.015625 C 0.875 -1.742188 0.515625 -2.691406 0.515625 -3.859375 C 0.515625 -5.035156 0.878906 -5.988281 1.609375 -6.71875 C 2.335938 -7.445312 3.28125 -7.816406 4.4375 -7.828125 Z M 2.171875 -4.46875 L 6.609375 -4.46875 C 6.578125 -5.09375 6.367188 -5.582031 5.984375 -5.9375 C 5.597656 -6.300781 5.085938 -6.484375 4.453125 -6.484375 C 3.835938 -6.484375 3.328125 -6.300781 2.921875 -5.9375 C 2.523438 -5.582031 2.273438 -5.09375 2.171875 -4.46875 Z M 2.171875 -4.46875 "/></g></g></g><g fill="#000000" fill-opacity="1"><g transform="translate(176.435976, 360.22811)"><g><path d="M 5.78125 -7.828125 C 6.6875 -7.828125 7.394531 -7.5625 7.90625 -7.03125 C 8.414062 -6.5 8.671875 -5.765625 8.671875 -4.828125 L 8.671875 0 L 6.984375 0 L 6.984375 -4.359375 C 6.984375 -4.941406 6.816406 -5.398438 6.484375 -5.734375 C 6.160156 -6.078125 5.707031 -6.25 5.125 -6.25 C 4.5 -6.238281 3.988281 -6.035156 3.59375 -5.640625 C 3.195312 -5.253906 2.972656 -4.75 2.921875 -4.125 L 2.921875 0 L 1.234375 0 L 1.234375 -7.765625 L 2.921875 -7.765625 L 2.921875 -6.28125 C 3.441406 -7.3125 4.394531 -7.828125 5.78125 -7.828125 Z M 5.78125 -7.828125 "/></g></g></g><g fill="#000000" fill-opacity="1"><g transform="translate(185.739555, 360.22811)"><g><path d="M 5.203125 -1.78125 L 5.640625 -0.5 C 4.992188 -0.113281 4.351562 0.078125 3.71875 0.078125 C 3.082031 0.078125 2.5625 -0.109375 2.15625 -0.484375 C 1.75 -0.867188 1.546875 -1.4375 1.546875 -2.1875 L 1.546875 -6.21875 L 0.453125 -6.21875 L 0.453125 -7.46875 L 1.546875 -7.46875 L 1.546875 -9.609375 L 3.203125 -9.609375 L 3.203125 -7.46875 L 5.5 -7.46875 L 5.5 -6.21875 L 3.203125 -6.21875 L 3.203125 -2.5 C 3.203125 -2.101562 3.269531 -1.828125 3.40625 -1.671875 C 3.550781 -1.515625 3.765625 -1.4375 4.046875 -1.4375 C 4.359375 -1.4375 4.742188 -1.550781 5.203125 -1.78125 Z M 5.203125 -1.78125 "/></g></g></g><g fill="#000000" fill-opacity="1"><g transform="translate(191.309926, 360.22811)"><g/></g></g><g fill="#000000" fill-opacity="1"><g transform="translate(194.707461, 360.22811)"><g><path d="M 5.859375 -10.265625 C 6.585938 -10.265625 7.289062 -10.125 7.96875 -9.84375 C 8.65625 -9.5625 9.25 -9.175781 9.75 -8.6875 L 8.734375 -7.421875 C 8.367188 -7.828125 7.929688 -8.144531 7.421875 -8.375 C 6.921875 -8.613281 6.410156 -8.734375 5.890625 -8.734375 C 4.867188 -8.734375 4.003906 -8.382812 3.296875 -7.6875 C 2.597656 -6.988281 2.25 -6.140625 2.25 -5.140625 C 2.25 -4.128906 2.597656 -3.273438 3.296875 -2.578125 C 4.003906 -1.878906 4.867188 -1.53125 5.890625 -1.53125 C 6.953125 -1.53125 7.898438 -1.9375 8.734375 -2.75 L 9.765625 -1.609375 C 9.234375 -1.085938 8.617188 -0.675781 7.921875 -0.375 C 7.222656 -0.0703125 6.519531 0.078125 5.8125 0.078125 C 4.3125 0.078125 3.050781 -0.421875 2.03125 -1.421875 C 1.007812 -2.421875 0.5 -3.65625 0.5 -5.125 C 0.5 -6.570312 1.015625 -7.789062 2.046875 -8.78125 C 3.085938 -9.769531 4.359375 -10.265625 5.859375 -10.265625 Z M 5.859375 -10.265625 "/></g></g></g><g fill="#000000" fill-opacity="1"><g transform="translate(204.506867, 360.22811)"><g><path d="M 5.859375 -7.828125 C 6.765625 -7.828125 7.472656 -7.5625 7.984375 -7.03125 C 8.492188 -6.5 8.75 -5.765625 8.75 -4.828125 L 8.75 0 L 7.078125 0 L 7.078125 -4.359375 C 7.078125 -4.941406 6.910156 -5.398438 6.578125 -5.734375 C 6.242188 -6.078125 5.785156 -6.25 5.203125 -6.25 C 4.523438 -6.238281 3.984375 -6.003906 3.578125 -5.546875 C 3.179688 -5.097656 2.984375 -4.523438 2.984375 -3.828125 L 2.984375 0 L 1.3125 0 L 1.3125 -10.828125 L 2.984375 -10.828125 L 2.984375 -6.25 C 3.523438 -7.300781 4.484375 -7.828125 5.859375 -7.828125 Z M 5.859375 -7.828125 "/></g></g></g><g fill="#000000" fill-opacity="1"><g transform="translate(213.897953, 360.22811)"><g><path d="M 1.375 -10.71875 C 1.5625 -10.90625 1.796875 -11 2.078125 -11 C 2.359375 -11 2.585938 -10.90625 2.765625 -10.71875 C 2.953125 -10.53125 3.046875 -10.285156 3.046875 -9.984375 C 3.046875 -9.691406 2.953125 -9.445312 2.765625 -9.25 C 2.585938 -9.0625 2.359375 -8.96875 2.078125 -8.96875 C 1.796875 -8.96875 1.5625 -9.0625 1.375 -9.25 C 1.1875 -9.445312 1.09375 -9.691406 1.09375 -9.984375 C 1.09375 -10.285156 1.1875 -10.53125 1.375 -10.71875 Z M 2.90625 0 L 1.234375 0 L 1.234375 -7.765625 L 2.90625 -7.765625 Z M 2.90625 0 "/></g></g></g><g fill="#000000" fill-opacity="1"><g transform="translate(217.674641, 360.22811)"><g><path d="M 5.78125 -7.828125 C 6.6875 -7.828125 7.394531 -7.5625 7.90625 -7.03125 C 8.414062 -6.5 8.671875 -5.765625 8.671875 -4.828125 L 8.671875 0 L 6.984375 0 L 6.984375 -4.359375 C 6.984375 -4.941406 6.816406 -5.398438 6.484375 -5.734375 C 6.160156 -6.078125 5.707031 -6.25 5.125 -6.25 C 4.5 -6.238281 3.988281 -6.035156 3.59375 -5.640625 C 3.195312 -5.253906 2.972656 -4.75 2.921875 -4.125 L 2.921875 0 L 1.234375 0 L 1.234375 -7.765625 L 2.921875 -7.765625 L 2.921875 -6.28125 C 3.441406 -7.3125 4.394531 -7.828125 5.78125 -7.828125 Z M 5.78125 -7.828125 "/></g></g></g><g fill="#000000" fill-opacity="1"><g transform="translate(226.97822, 360.22811)"><g><path d="M 4.4375 -7.828125 C 5.769531 -7.828125 6.734375 -7.425781 7.328125 -6.625 C 7.929688 -5.820312 8.179688 -4.691406 8.078125 -3.234375 L 2.203125 -3.234375 C 2.335938 -2.628906 2.617188 -2.15625 3.046875 -1.8125 C 3.472656 -1.46875 3.992188 -1.296875 4.609375 -1.296875 C 5.484375 -1.296875 6.210938 -1.597656 6.796875 -2.203125 L 7.6875 -1.25 C 6.894531 -0.375 5.828125 0.0625 4.484375 0.0625 C 3.285156 0.0625 2.320312 -0.296875 1.59375 -1.015625 C 0.875 -1.742188 0.515625 -2.691406 0.515625 -3.859375 C 0.515625 -5.035156 0.878906 -5.988281 1.609375 -6.71875 C 2.335938 -7.445312 3.28125 -7.816406 4.4375 -7.828125 Z M 2.171875 -4.46875 L 6.609375 -4.46875 C 6.578125 -5.09375 6.367188 -5.582031 5.984375 -5.9375 C 5.597656 -6.300781 5.085938 -6.484375 4.453125 -6.484375 C 3.835938 -6.484375 3.328125 -6.300781 2.921875 -5.9375 C 2.523438 -5.582031 2.273438 -5.09375 2.171875 -4.46875 Z M 2.171875 -4.46875 "/></g></g></g><g fill="#000000" fill-opacity="1"><g transform="translate(235.188097, 360.22811)"><g><path d="M 3.5625 -7.84375 C 4.632812 -7.84375 5.539062 -7.578125 6.28125 -7.046875 L 5.65625 -5.8125 C 4.914062 -6.269531 4.171875 -6.5 3.421875 -6.5 C 2.671875 -6.5 2.296875 -6.238281 2.296875 -5.71875 C 2.296875 -5.46875 2.4375 -5.257812 2.71875 -5.09375 C 3 -4.925781 3.335938 -4.785156 3.734375 -4.671875 C 4.140625 -4.566406 4.546875 -4.4375 4.953125 -4.28125 C 5.359375 -4.132812 5.703125 -3.890625 5.984375 -3.546875 C 6.265625 -3.203125 6.40625 -2.769531 6.40625 -2.25 C 6.40625 -1.5 6.117188 -0.925781 5.546875 -0.53125 C 4.984375 -0.132812 4.273438 0.0625 3.421875 0.0625 C 2.835938 0.0625 2.265625 -0.03125 1.703125 -0.21875 C 1.148438 -0.414062 0.6875 -0.679688 0.3125 -1.015625 L 0.90625 -2.21875 C 1.238281 -1.925781 1.644531 -1.691406 2.125 -1.515625 C 2.601562 -1.335938 3.0625 -1.25 3.5 -1.25 C 3.882812 -1.25 4.191406 -1.316406 4.421875 -1.453125 C 4.648438 -1.585938 4.765625 -1.800781 4.765625 -2.09375 C 4.765625 -2.382812 4.625 -2.613281 4.34375 -2.78125 C 4.0625 -2.957031 3.722656 -3.097656 3.328125 -3.203125 C 2.929688 -3.316406 2.53125 -3.445312 2.125 -3.59375 C 1.726562 -3.738281 1.390625 -3.976562 1.109375 -4.3125 C 0.835938 -4.644531 0.703125 -5.070312 0.703125 -5.59375 C 0.703125 -6.332031 0.972656 -6.890625 1.515625 -7.265625 C 2.066406 -7.648438 2.75 -7.84375 3.5625 -7.84375 Z M 3.5625 -7.84375 "/></g></g></g><g fill="#000000" fill-opacity="1"><g transform="translate(241.677199, 360.22811)"><g><path d="M 4.4375 -7.828125 C 5.769531 -7.828125 6.734375 -7.425781 7.328125 -6.625 C 7.929688 -5.820312 8.179688 -4.691406 8.078125 -3.234375 L 2.203125 -3.234375 C 2.335938 -2.628906 2.617188 -2.15625 3.046875 -1.8125 C 3.472656 -1.46875 3.992188 -1.296875 4.609375 -1.296875 C 5.484375 -1.296875 6.210938 -1.597656 6.796875 -2.203125 L 7.6875 -1.25 C 6.894531 -0.375 5.828125 0.0625 4.484375 0.0625 C 3.285156 0.0625 2.320312 -0.296875 1.59375 -1.015625 C 0.875 -1.742188 0.515625 -2.691406 0.515625 -3.859375 C 0.515625 -5.035156 0.878906 -5.988281 1.609375 -6.71875 C 2.335938 -7.445312 3.28125 -7.816406 4.4375 -7.828125 Z M 2.171875 -4.46875 L 6.609375 -4.46875 C 6.578125 -5.09375 6.367188 -5.582031 5.984375 -5.9375 C 5.597656 -6.300781 5.085938 -6.484375 4.453125 -6.484375 C 3.835938 -6.484375 3.328125 -6.300781 2.921875 -5.9375 C 2.523438 -5.582031 2.273438 -5.09375 2.171875 -4.46875 Z M 2.171875 -4.46875 "/></g></g></g><g fill="#000000" fill-opacity="1"><g transform="translate(249.887076, 360.22811)"><g/></g></g><g fill="#000000" fill-opacity="1"><g transform="translate(253.284611, 360.22811)"><g><path d="M 5.703125 -7.828125 C 6.804688 -7.828125 7.695312 -7.457031 8.375 -6.71875 C 9.0625 -5.988281 9.40625 -5.035156 9.40625 -3.859375 C 9.40625 -2.679688 9.070312 -1.734375 8.40625 -1.015625 C 7.738281 -0.296875 6.847656 0.0625 5.734375 0.0625 C 4.492188 0.0625 3.578125 -0.40625 2.984375 -1.34375 L 2.984375 2.828125 L 1.3125 2.828125 L 1.3125 -7.765625 L 2.984375 -7.765625 L 2.984375 -6.421875 C 3.578125 -7.359375 4.484375 -7.828125 5.703125 -7.828125 Z M 3.640625 -2.078125 C 4.085938 -1.609375 4.65625 -1.375 5.34375 -1.375 C 6.039062 -1.375 6.609375 -1.609375 7.046875 -2.078125 C 7.492188 -2.546875 7.71875 -3.15625 7.71875 -3.90625 C 7.71875 -4.632812 7.492188 -5.234375 7.046875 -5.703125 C 6.609375 -6.179688 6.039062 -6.421875 5.34375 -6.421875 C 4.65625 -6.421875 4.085938 -6.179688 3.640625 -5.703125 C 3.203125 -5.234375 2.984375 -4.632812 2.984375 -3.90625 C 2.984375 -3.15625 3.203125 -2.546875 3.640625 -2.078125 Z M 3.640625 -2.078125 "/></g></g></g><g fill="#000000" fill-opacity="1"><g transform="translate(262.836111, 360.22811)"><g><path d="M 4.5625 -7.828125 C 5.757812 -7.828125 6.734375 -7.460938 7.484375 -6.734375 C 8.234375 -6.003906 8.609375 -5.050781 8.609375 -3.875 C 8.609375 -2.707031 8.234375 -1.757812 7.484375 -1.03125 C 6.734375 -0.300781 5.757812 0.0625 4.5625 0.0625 C 3.363281 0.0625 2.390625 -0.300781 1.640625 -1.03125 C 0.890625 -1.757812 0.515625 -2.707031 0.515625 -3.875 C 0.515625 -5.050781 0.890625 -6.003906 1.640625 -6.734375 C 2.390625 -7.460938 3.363281 -7.828125 4.5625 -7.828125 Z M 4.5625 -6.375 C 3.863281 -6.375 3.289062 -6.140625 2.84375 -5.671875 C 2.40625 -5.203125 2.1875 -4.601562 2.1875 -3.875 C 2.1875 -3.125 2.40625 -2.515625 2.84375 -2.046875 C 3.289062 -1.578125 3.863281 -1.34375 4.5625 -1.34375 C 5.269531 -1.34375 5.84375 -1.578125 6.28125 -2.046875 C 6.71875 -2.515625 6.9375 -3.125 6.9375 -3.875 C 6.9375 -4.601562 6.710938 -5.203125 6.265625 -5.671875 C 5.828125 -6.140625 5.257812 -6.375 4.5625 -6.375 Z M 4.5625 -6.375 "/></g></g></g><g fill="#000000" fill-opacity="1"><g transform="translate(271.585554, 360.22811)"><g><path d="M 4.4375 -7.828125 C 5.769531 -7.828125 6.734375 -7.425781 7.328125 -6.625 C 7.929688 -5.820312 8.179688 -4.691406 8.078125 -3.234375 L 2.203125 -3.234375 C 2.335938 -2.628906 2.617188 -2.15625 3.046875 -1.8125 C 3.472656 -1.46875 3.992188 -1.296875 4.609375 -1.296875 C 5.484375 -1.296875 6.210938 -1.597656 6.796875 -2.203125 L 7.6875 -1.25 C 6.894531 -0.375 5.828125 0.0625 4.484375 0.0625 C 3.285156 0.0625 2.320312 -0.296875 1.59375 -1.015625 C 0.875 -1.742188 0.515625 -2.691406 0.515625 -3.859375 C 0.515625 -5.035156 0.878906 -5.988281 1.609375 -6.71875 C 2.335938 -7.445312 3.28125 -7.816406 4.4375 -7.828125 Z M 2.171875 -4.46875 L 6.609375 -4.46875 C 6.578125 -5.09375 6.367188 -5.582031 5.984375 -5.9375 C 5.597656 -6.300781 5.085938 -6.484375 4.453125 -6.484375 C 3.835938 -6.484375 3.328125 -6.300781 2.921875 -5.9375 C 2.523438 -5.582031 2.273438 -5.09375 2.171875 -4.46875 Z M 2.171875 -4.46875 "/></g></g></g><g fill="#000000" fill-opacity="1"><g transform="translate(279.795431, 360.22811)"><g><path d="M 11.375 -7.828125 C 12.257812 -7.828125 12.953125 -7.554688 13.453125 -7.015625 C 13.960938 -6.484375 14.21875 -5.753906 14.21875 -4.828125 L 14.21875 0 L 12.53125 0 L 12.53125 -4.359375 C 12.53125 -4.953125 12.367188 -5.414062 12.046875 -5.75 C 11.722656 -6.09375 11.273438 -6.265625 10.703125 -6.265625 C 10.046875 -6.242188 9.523438 -6.003906 9.140625 -5.546875 C 8.753906 -5.097656 8.5625 -4.53125 8.5625 -3.84375 L 8.5625 0 L 6.890625 0 L 6.890625 -4.359375 C 6.890625 -4.953125 6.722656 -5.414062 6.390625 -5.75 C 6.066406 -6.09375 5.625 -6.265625 5.0625 -6.265625 C 4.40625 -6.242188 3.878906 -6.003906 3.484375 -5.546875 C 3.097656 -5.097656 2.90625 -4.53125 2.90625 -3.84375 L 2.90625 0 L 1.234375 0 L 1.234375 -7.765625 L 2.90625 -7.765625 L 2.90625 -6.265625 C 3.414062 -7.304688 4.351562 -7.828125 5.71875 -7.828125 C 6.40625 -7.828125 6.976562 -7.660156 7.4375 -7.328125 C 7.90625 -7.003906 8.234375 -6.546875 8.421875 -5.953125 C 8.898438 -7.203125 9.882812 -7.828125 11.375 -7.828125 Z M 11.375 -7.828125 "/></g></g></g><g fill="#000000" fill-opacity="1"><g transform="translate(294.6405, 360.22811)"><g><path d="M 3.5625 -7.84375 C 4.632812 -7.84375 5.539062 -7.578125 6.28125 -7.046875 L 5.65625 -5.8125 C 4.914062 -6.269531 4.171875 -6.5 3.421875 -6.5 C 2.671875 -6.5 2.296875 -6.238281 2.296875 -5.71875 C 2.296875 -5.46875 2.4375 -5.257812 2.71875 -5.09375 C 3 -4.925781 3.335938 -4.785156 3.734375 -4.671875 C 4.140625 -4.566406 4.546875 -4.4375 4.953125 -4.28125 C 5.359375 -4.132812 5.703125 -3.890625 5.984375 -3.546875 C 6.265625 -3.203125 6.40625 -2.769531 6.40625 -2.25 C 6.40625 -1.5 6.117188 -0.925781 5.546875 -0.53125 C 4.984375 -0.132812 4.273438 0.0625 3.421875 0.0625 C 2.835938 0.0625 2.265625 -0.03125 1.703125 -0.21875 C 1.148438 -0.414062 0.6875 -0.679688 0.3125 -1.015625 L 0.90625 -2.21875 C 1.238281 -1.925781 1.644531 -1.691406 2.125 -1.515625 C 2.601562 -1.335938 3.0625 -1.25 3.5 -1.25 C 3.882812 -1.25 4.191406 -1.316406 4.421875 -1.453125 C 4.648438 -1.585938 4.765625 -1.800781 4.765625 -2.09375 C 4.765625 -2.382812 4.625 -2.613281 4.34375 -2.78125 C 4.0625 -2.957031 3.722656 -3.097656 3.328125 -3.203125 C 2.929688 -3.316406 2.53125 -3.445312 2.125 -3.59375 C 1.726562 -3.738281 1.390625 -3.976562 1.109375 -4.3125 C 0.835938 -4.644531 0.703125 -5.070312 0.703125 -5.59375 C 0.703125 -6.332031 0.972656 -6.890625 1.515625 -7.265625 C 2.066406 -7.648438 2.75 -7.84375 3.5625 -7.84375 Z M 3.5625 -7.84375 "/></g></g></g><g fill="#000000" fill-opacity="1"><g transform="translate(301.129602, 360.22811)"><g/></g></g><g fill="#000000" fill-opacity="1"><g transform="translate(304.527124, 360.22811)"><g><path d="M 5.203125 -1.78125 L 5.640625 -0.5 C 4.992188 -0.113281 4.351562 0.078125 3.71875 0.078125 C 3.082031 0.078125 2.5625 -0.109375 2.15625 -0.484375 C 1.75 -0.867188 1.546875 -1.4375 1.546875 -2.1875 L 1.546875 -6.21875 L 0.453125 -6.21875 L 0.453125 -7.46875 L 1.546875 -7.46875 L 1.546875 -9.609375 L 3.203125 -9.609375 L 3.203125 -7.46875 L 5.5 -7.46875 L 5.5 -6.21875 L 3.203125 -6.21875 L 3.203125 -2.5 C 3.203125 -2.101562 3.269531 -1.828125 3.40625 -1.671875 C 3.550781 -1.515625 3.765625 -1.4375 4.046875 -1.4375 C 4.359375 -1.4375 4.742188 -1.550781 5.203125 -1.78125 Z M 5.203125 -1.78125 "/></g></g></g><g fill="#000000" fill-opacity="1"><g transform="translate(310.097495, 360.22811)"><g><path d="M 5.859375 -7.828125 C 6.765625 -7.828125 7.472656 -7.5625 7.984375 -7.03125 C 8.492188 -6.5 8.75 -5.765625 8.75 -4.828125 L 8.75 0 L 7.078125 0 L 7.078125 -4.359375 C 7.078125 -4.941406 6.910156 -5.398438 6.578125 -5.734375 C 6.242188 -6.078125 5.785156 -6.25 5.203125 -6.25 C 4.523438 -6.238281 3.984375 -6.003906 3.578125 -5.546875 C 3.179688 -5.097656 2.984375 -4.523438 2.984375 -3.828125 L 2.984375 0 L 1.3125 0 L 1.3125 -10.828125 L 2.984375 -10.828125 L 2.984375 -6.25 C 3.523438 -7.300781 4.484375 -7.828125 5.859375 -7.828125 Z M 5.859375 -7.828125 "/></g></g></g><g fill="#000000" fill-opacity="1"><g transform="translate(319.48858, 360.22811)"><g><path d="M 2.921875 -7.765625 L 2.921875 -6.21875 C 3.453125 -7.289062 4.347656 -7.828125 5.609375 -7.828125 L 5.609375 -6.21875 C 4.835938 -6.257812 4.210938 -6.078125 3.734375 -5.671875 C 3.253906 -5.273438 2.984375 -4.738281 2.921875 -4.0625 L 2.921875 0 L 1.234375 0 L 1.234375 -7.765625 Z M 2.921875 -7.765625 "/></g></g></g><g fill="#000000" fill-opacity="1"><g transform="translate(324.869381, 360.22811)"><g><path d="M 4.5625 -7.828125 C 5.757812 -7.828125 6.734375 -7.460938 7.484375 -6.734375 C 8.234375 -6.003906 8.609375 -5.050781 8.609375 -3.875 C 8.609375 -2.707031 8.234375 -1.757812 7.484375 -1.03125 C 6.734375 -0.300781 5.757812 0.0625 4.5625 0.0625 C 3.363281 0.0625 2.390625 -0.300781 1.640625 -1.03125 C 0.890625 -1.757812 0.515625 -2.707031 0.515625 -3.875 C 0.515625 -5.050781 0.890625 -6.003906 1.640625 -6.734375 C 2.390625 -7.460938 3.363281 -7.828125 4.5625 -7.828125 Z M 4.5625 -6.375 C 3.863281 -6.375 3.289062 -6.140625 2.84375 -5.671875 C 2.40625 -5.203125 2.1875 -4.601562 2.1875 -3.875 C 2.1875 -3.125 2.40625 -2.515625 2.84375 -2.046875 C 3.289062 -1.578125 3.863281 -1.34375 4.5625 -1.34375 C 5.269531 -1.34375 5.84375 -1.578125 6.28125 -2.046875 C 6.71875 -2.515625 6.9375 -3.125 6.9375 -3.875 C 6.9375 -4.601562 6.710938 -5.203125 6.265625 -5.671875 C 5.828125 -6.140625 5.257812 -6.375 4.5625 -6.375 Z M 4.5625 -6.375 "/></g></g></g><g fill="#000000" fill-opacity="1"><g transform="translate(333.61881, 360.22811)"><g><path d="M 8.296875 -7.765625 L 8.296875 0 L 6.609375 0 L 6.609375 -1.515625 C 6.109375 -0.484375 5.1875 0.0390625 3.84375 0.0625 C 2.957031 0.0625 2.257812 -0.203125 1.75 -0.734375 C 1.25 -1.273438 1 -2.007812 1 -2.9375 L 1 -7.765625 L 2.671875 -7.765625 L 2.671875 -3.40625 C 2.671875 -2.820312 2.832031 -2.359375 3.15625 -2.015625 C 3.476562 -1.679688 3.921875 -1.515625 4.484375 -1.515625 C 5.128906 -1.523438 5.644531 -1.753906 6.03125 -2.203125 C 6.414062 -2.660156 6.609375 -3.238281 6.609375 -3.9375 L 6.609375 -7.765625 Z M 8.296875 -7.765625 "/></g></g></g><g fill="#000000" fill-opacity="1"><g transform="translate(342.776574, 360.22811)"><g><path d="M 8.25 -7.765625 L 8.25 -0.765625 C 8.25 0.347656 7.882812 1.234375 7.15625 1.890625 C 6.425781 2.546875 5.445312 2.875 4.21875 2.875 C 3.070312 2.875 2 2.535156 1 1.859375 L 1.703125 0.640625 C 2.460938 1.203125 3.273438 1.484375 4.140625 1.484375 C 4.878906 1.484375 5.46875 1.285156 5.90625 0.890625 C 6.351562 0.492188 6.578125 -0.0390625 6.578125 -0.71875 L 6.578125 -1.6875 C 6.035156 -0.8125 5.179688 -0.375 4.015625 -0.375 C 2.960938 -0.375 2.113281 -0.71875 1.46875 -1.40625 C 0.832031 -2.101562 0.515625 -3.007812 0.515625 -4.125 C 0.515625 -5.226562 0.828125 -6.117188 1.453125 -6.796875 C 2.085938 -7.472656 2.921875 -7.816406 3.953125 -7.828125 C 5.140625 -7.835938 6.015625 -7.398438 6.578125 -6.515625 L 6.578125 -7.765625 Z M 4.34375 -1.6875 C 5 -1.6875 5.535156 -1.910156 5.953125 -2.359375 C 6.367188 -2.804688 6.578125 -3.378906 6.578125 -4.078125 C 6.578125 -4.785156 6.367188 -5.359375 5.953125 -5.796875 C 5.546875 -6.242188 5.007812 -6.46875 4.34375 -6.46875 C 3.6875 -6.46875 3.144531 -6.242188 2.71875 -5.796875 C 2.300781 -5.359375 2.09375 -4.789062 2.09375 -4.09375 C 2.09375 -3.382812 2.300781 -2.804688 2.71875 -2.359375 C 3.132812 -1.910156 3.675781 -1.6875 4.34375 -1.6875 Z M 4.34375 -1.6875 "/></g></g></g><g fill="#000000" fill-opacity="1"><g transform="translate(351.744741, 360.22811)"><g><path d="M 5.859375 -7.828125 C 6.765625 -7.828125 7.472656 -7.5625 7.984375 -7.03125 C 8.492188 -6.5 8.75 -5.765625 8.75 -4.828125 L 8.75 0 L 7.078125 0 L 7.078125 -4.359375 C 7.078125 -4.941406 6.910156 -5.398438 6.578125 -5.734375 C 6.242188 -6.078125 5.785156 -6.25 5.203125 -6.25 C 4.523438 -6.238281 3.984375 -6.003906 3.578125 -5.546875 C 3.179688 -5.097656 2.984375 -4.523438 2.984375 -3.828125 L 2.984375 0 L 1.3125 0 L 1.3125 -10.828125 L 2.984375 -10.828125 L 2.984375 -6.25 C 3.523438 -7.300781 4.484375 -7.828125 5.859375 -7.828125 Z M 5.859375 -7.828125 "/></g></g></g><g fill="#000000" fill-opacity="1"><g transform="translate(361.135826, 360.22811)"><g/></g></g><g fill="#000000" fill-opacity="1"><g transform="translate(364.533348, 360.22811)"><g><path d="M 7.9375 -2.3125 L 2.78125 -2.3125 L 1.8125 0 L 0.015625 0 L 4.53125 -10.21875 L 6.296875 -10.21875 L 10.75 0 L 8.921875 0 Z M 7.28125 -3.84375 L 5.359375 -8.375 L 3.421875 -3.84375 Z M 7.28125 -3.84375 "/></g></g></g><g fill="#000000" fill-opacity="1"><g transform="translate(374.930644, 360.22811)"><g><path d="M 3.0625 0 L 1.34375 0 L 1.34375 -10.21875 L 3.0625 -10.21875 Z M 3.0625 0 "/></g></g></g><g fill="#000000" fill-opacity="1"><g transform="translate(52.136402, 380.02811)"><g><path d="M 5.203125 -1.78125 L 5.640625 -0.5 C 4.992188 -0.113281 4.351562 0.078125 3.71875 0.078125 C 3.082031 0.078125 2.5625 -0.109375 2.15625 -0.484375 C 1.75 -0.867188 1.546875 -1.4375 1.546875 -2.1875 L 1.546875 -6.21875 L 0.453125 -6.21875 L 0.453125 -7.46875 L 1.546875 -7.46875 L 1.546875 -9.609375 L 3.203125 -9.609375 L 3.203125 -7.46875 L 5.5 -7.46875 L 5.5 -6.21875 L 3.203125 -6.21875 L 3.203125 -2.5 C 3.203125 -2.101562 3.269531 -1.828125 3.40625 -1.671875 C 3.550781 -1.515625 3.765625 -1.4375 4.046875 -1.4375 C 4.359375 -1.4375 4.742188 -1.550781 5.203125 -1.78125 Z M 5.203125 -1.78125 "/></g></g></g><g fill="#000000" fill-opacity="1"><g transform="translate(57.70677, 380.02811)"><g><path d="M 4.4375 -7.828125 C 5.769531 -7.828125 6.734375 -7.425781 7.328125 -6.625 C 7.929688 -5.820312 8.179688 -4.691406 8.078125 -3.234375 L 2.203125 -3.234375 C 2.335938 -2.628906 2.617188 -2.15625 3.046875 -1.8125 C 3.472656 -1.46875 3.992188 -1.296875 4.609375 -1.296875 C 5.484375 -1.296875 6.210938 -1.597656 6.796875 -2.203125 L 7.6875 -1.25 C 6.894531 -0.375 5.828125 0.0625 4.484375 0.0625 C 3.285156 0.0625 2.320312 -0.296875 1.59375 -1.015625 C 0.875 -1.742188 0.515625 -2.691406 0.515625 -3.859375 C 0.515625 -5.035156 0.878906 -5.988281 1.609375 -6.71875 C 2.335938 -7.445312 3.28125 -7.816406 4.4375 -7.828125 Z M 2.171875 -4.46875 L 6.609375 -4.46875 C 6.578125 -5.09375 6.367188 -5.582031 5.984375 -5.9375 C 5.597656 -6.300781 5.085938 -6.484375 4.453125 -6.484375 C 3.835938 -6.484375 3.328125 -6.300781 2.921875 -5.9375 C 2.523438 -5.582031 2.273438 -5.09375 2.171875 -4.46875 Z M 2.171875 -4.46875 "/></g></g></g><g fill="#000000" fill-opacity="1"><g transform="translate(65.916645, 380.02811)"><g><path d="M 4.421875 -7.828125 C 5.828125 -7.828125 6.894531 -7.398438 7.625 -6.546875 L 6.71875 -5.46875 C 6.132812 -6.0625 5.394531 -6.351562 4.5 -6.34375 C 3.820312 -6.34375 3.265625 -6.113281 2.828125 -5.65625 C 2.398438 -5.195312 2.1875 -4.597656 2.1875 -3.859375 C 2.1875 -3.128906 2.398438 -2.535156 2.828125 -2.078125 C 3.265625 -1.617188 3.820312 -1.390625 4.5 -1.390625 C 5.488281 -1.390625 6.25 -1.703125 6.78125 -2.328125 L 7.71875 -1.390625 C 6.988281 -0.421875 5.890625 0.0625 4.421875 0.0625 C 3.265625 0.0625 2.320312 -0.296875 1.59375 -1.015625 C 0.875 -1.742188 0.515625 -2.695312 0.515625 -3.875 C 0.515625 -5.050781 0.875 -6.003906 1.59375 -6.734375 C 2.320312 -7.460938 3.265625 -7.828125 4.421875 -7.828125 Z M 4.421875 -7.828125 "/></g></g></g><g fill="#000000" fill-opacity="1"><g transform="translate(73.776523, 380.02811)"><g><path d="M 5.859375 -7.828125 C 6.765625 -7.828125 7.472656 -7.5625 7.984375 -7.03125 C 8.492188 -6.5 8.75 -5.765625 8.75 -4.828125 L 8.75 0 L 7.078125 0 L 7.078125 -4.359375 C 7.078125 -4.941406 6.910156 -5.398438 6.578125 -5.734375 C 6.242188 -6.078125 5.785156 -6.25 5.203125 -6.25 C 4.523438 -6.238281 3.984375 -6.003906 3.578125 -5.546875 C 3.179688 -5.097656 2.984375 -4.523438 2.984375 -3.828125 L 2.984375 0 L 1.3125 0 L 1.3125 -10.828125 L 2.984375 -10.828125 L 2.984375 -6.25 C 3.523438 -7.300781 4.484375 -7.828125 5.859375 -7.828125 Z M 5.859375 -7.828125 "/></g></g></g><g fill="#000000" fill-opacity="1"><g transform="translate(83.167607, 380.02811)"><g><path d="M 5.78125 -7.828125 C 6.6875 -7.828125 7.394531 -7.5625 7.90625 -7.03125 C 8.414062 -6.5 8.671875 -5.765625 8.671875 -4.828125 L 8.671875 0 L 6.984375 0 L 6.984375 -4.359375 C 6.984375 -4.941406 6.816406 -5.398438 6.484375 -5.734375 C 6.160156 -6.078125 5.707031 -6.25 5.125 -6.25 C 4.5 -6.238281 3.988281 -6.035156 3.59375 -5.640625 C 3.195312 -5.253906 2.972656 -4.75 2.921875 -4.125 L 2.921875 0 L 1.234375 0 L 1.234375 -7.765625 L 2.921875 -7.765625 L 2.921875 -6.28125 C 3.441406 -7.3125 4.394531 -7.828125 5.78125 -7.828125 Z M 5.78125 -7.828125 "/></g></g></g><g fill="#000000" fill-opacity="1"><g transform="translate(92.471187, 380.02811)"><g><path d="M 4.5625 -7.828125 C 5.757812 -7.828125 6.734375 -7.460938 7.484375 -6.734375 C 8.234375 -6.003906 8.609375 -5.050781 8.609375 -3.875 C 8.609375 -2.707031 8.234375 -1.757812 7.484375 -1.03125 C 6.734375 -0.300781 5.757812 0.0625 4.5625 0.0625 C 3.363281 0.0625 2.390625 -0.300781 1.640625 -1.03125 C 0.890625 -1.757812 0.515625 -2.707031 0.515625 -3.875 C 0.515625 -5.050781 0.890625 -6.003906 1.640625 -6.734375 C 2.390625 -7.460938 3.363281 -7.828125 4.5625 -7.828125 Z M 4.5625 -6.375 C 3.863281 -6.375 3.289062 -6.140625 2.84375 -5.671875 C 2.40625 -5.203125 2.1875 -4.601562 2.1875 -3.875 C 2.1875 -3.125 2.40625 -2.515625 2.84375 -2.046875 C 3.289062 -1.578125 3.863281 -1.34375 4.5625 -1.34375 C 5.269531 -1.34375 5.84375 -1.578125 6.28125 -2.046875 C 6.71875 -2.515625 6.9375 -3.125 6.9375 -3.875 C 6.9375 -4.601562 6.710938 -5.203125 6.265625 -5.671875 C 5.828125 -6.140625 5.257812 -6.375 4.5625 -6.375 Z M 4.5625 -6.375 "/></g></g></g><g fill="#000000" fill-opacity="1"><g transform="translate(101.220629, 380.02811)"><g><path d="M 2.984375 0 L 1.3125 0 L 1.3125 -10.828125 L 2.984375 -10.828125 Z M 2.984375 0 "/></g></g></g><g fill="#000000" fill-opacity="1"><g transform="translate(105.157728, 380.02811)"><g><path d="M 4.5625 -7.828125 C 5.757812 -7.828125 6.734375 -7.460938 7.484375 -6.734375 C 8.234375 -6.003906 8.609375 -5.050781 8.609375 -3.875 C 8.609375 -2.707031 8.234375 -1.757812 7.484375 -1.03125 C 6.734375 -0.300781 5.757812 0.0625 4.5625 0.0625 C 3.363281 0.0625 2.390625 -0.300781 1.640625 -1.03125 C 0.890625 -1.757812 0.515625 -2.707031 0.515625 -3.875 C 0.515625 -5.050781 0.890625 -6.003906 1.640625 -6.734375 C 2.390625 -7.460938 3.363281 -7.828125 4.5625 -7.828125 Z M 4.5625 -6.375 C 3.863281 -6.375 3.289062 -6.140625 2.84375 -5.671875 C 2.40625 -5.203125 2.1875 -4.601562 2.1875 -3.875 C 2.1875 -3.125 2.40625 -2.515625 2.84375 -2.046875 C 3.289062 -1.578125 3.863281 -1.34375 4.5625 -1.34375 C 5.269531 -1.34375 5.84375 -1.578125 6.28125 -2.046875 C 6.71875 -2.515625 6.9375 -3.125 6.9375 -3.875 C 6.9375 -4.601562 6.710938 -5.203125 6.265625 -5.671875 C 5.828125 -6.140625 5.257812 -6.375 4.5625 -6.375 Z M 4.5625 -6.375 "/></g></g></g><g fill="#000000" fill-opacity="1"><g transform="translate(113.907167, 380.02811)"><g><path d="M 8.25 -7.765625 L 8.25 -0.765625 C 8.25 0.347656 7.882812 1.234375 7.15625 1.890625 C 6.425781 2.546875 5.445312 2.875 4.21875 2.875 C 3.070312 2.875 2 2.535156 1 1.859375 L 1.703125 0.640625 C 2.460938 1.203125 3.273438 1.484375 4.140625 1.484375 C 4.878906 1.484375 5.46875 1.285156 5.90625 0.890625 C 6.351562 0.492188 6.578125 -0.0390625 6.578125 -0.71875 L 6.578125 -1.6875 C 6.035156 -0.8125 5.179688 -0.375 4.015625 -0.375 C 2.960938 -0.375 2.113281 -0.71875 1.46875 -1.40625 C 0.832031 -2.101562 0.515625 -3.007812 0.515625 -4.125 C 0.515625 -5.226562 0.828125 -6.117188 1.453125 -6.796875 C 2.085938 -7.472656 2.921875 -7.816406 3.953125 -7.828125 C 5.140625 -7.835938 6.015625 -7.398438 6.578125 -6.515625 L 6.578125 -7.765625 Z M 4.34375 -1.6875 C 5 -1.6875 5.535156 -1.910156 5.953125 -2.359375 C 6.367188 -2.804688 6.578125 -3.378906 6.578125 -4.078125 C 6.578125 -4.785156 6.367188 -5.359375 5.953125 -5.796875 C 5.546875 -6.242188 5.007812 -6.46875 4.34375 -6.46875 C 3.6875 -6.46875 3.144531 -6.242188 2.71875 -5.796875 C 2.300781 -5.359375 2.09375 -4.789062 2.09375 -4.09375 C 2.09375 -3.382812 2.300781 -2.804688 2.71875 -2.359375 C 3.132812 -1.910156 3.675781 -1.6875 4.34375 -1.6875 Z M 4.34375 -1.6875 "/></g></g></g><g fill="#000000" fill-opacity="1"><g transform="translate(122.875348, 380.02811)"><g><path d="M 7.828125 -7.765625 L 4.296875 1.0625 C 3.816406 2.289062 2.972656 2.90625 1.765625 2.90625 C 1.097656 2.90625 0.5 2.6875 -0.03125 2.25 L 0.6875 0.953125 C 1.039062 1.203125 1.375 1.328125 1.6875 1.328125 C 2.21875 1.328125 2.613281 1.039062 2.875 0.46875 L 3.140625 -0.109375 L -0.078125 -7.765625 L 1.65625 -7.765625 L 3.984375 -1.875 L 6.140625 -7.765625 Z M 7.828125 -7.765625 "/></g></g></g><g fill="#000000" fill-opacity="1"><g transform="translate(130.253999, 380.02811)"><g><path d="M 0.9375 -1.515625 C 1.113281 -1.703125 1.332031 -1.796875 1.59375 -1.796875 C 1.851562 -1.796875 2.070312 -1.703125 2.25 -1.515625 C 2.425781 -1.335938 2.515625 -1.113281 2.515625 -0.84375 C 2.515625 -0.5625 2.425781 -0.328125 2.25 -0.140625 C 2.070312 0.0351562 1.851562 0.125 1.59375 0.125 C 1.332031 0.125 1.113281 0.0351562 0.9375 -0.140625 C 0.757812 -0.328125 0.671875 -0.5625 0.671875 -0.84375 C 0.671875 -1.113281 0.757812 -1.335938 0.9375 -1.515625 Z M 0.9375 -1.515625 "/></g></g></g><path stroke-linecap="butt" transform="matrix(0.9, 0, 0, 0.9, 52.136402, 20.435083)" fill="none" stroke-linejoin="miter" d="M 18.628825 24.000082 L 15.851047 24.000082 L 12.040283 11.47838 L 8.186116 24.000082 L 5.395318 24.000082 L 0.0654565 7.941053 L 2.977783 7.941053 L 6.884033 20.992269 L 10.759901 7.967095 L 13.420492 7.941053 L 17.318061 20.992269 L 21.198269 7.941053 L 23.993408 7.941053 Z M 40.095839 10.371609 L 31.332818 10.371609 L 31.332818 14.707547 L 39.180041 14.707547 L 39.180041 17.138102 L 31.332818 17.138102 L 31.332818 21.569526 L 40.373617 21.569526 L 40.373617 24.000082 L 28.628825 24.000082 L 28.628825 7.941053 L 40.095839 7.941053 Z M 49.132298 21.547825 L 56.085423 21.547825 L 56.085423 24.000082 L 46.428305 24.000082 L 46.428305 7.941053 L 49.132298 7.941053 Z M 68.542021 7.875949 C 69.674833 7.875949 70.777264 8.092963 71.853653 8.531331 C 72.930042 8.965359 73.863201 9.572998 74.640111 10.349908 L 73.05591 12.324734 C 72.478653 11.695394 71.792889 11.200602 70.994278 10.831679 C 70.200007 10.467095 69.397055 10.284804 68.585423 10.284804 C 66.983861 10.284804 65.625354 10.831679 64.514243 11.925429 C 63.407472 13.014838 62.851916 14.347304 62.851916 15.922825 C 62.851916 17.515706 63.407472 18.856852 64.514243 19.950602 C 65.625354 21.044352 66.983861 21.591227 68.585423 21.591227 C 70.25209 21.591227 71.740805 20.957547 73.05591 19.685845 L 74.666153 21.47404 C 73.83716 22.290012 72.873618 22.932373 71.775528 23.405464 C 70.673097 23.878554 69.561986 24.112929 68.446535 24.112929 C 66.089764 24.112929 64.110597 23.331679 62.504694 21.764839 C 60.898791 20.197998 60.09584 18.257894 60.09584 15.944526 C 60.09584 13.67022 60.911812 11.756158 62.539416 10.206679 C 64.171361 8.652859 66.172229 7.875949 68.542021 7.875949 Z M 81.289417 10.206679 C 82.930042 8.652859 84.948271 7.875949 87.352785 7.875949 C 89.752959 7.875949 91.771188 8.652859 93.403132 10.206679 C 95.039417 11.756158 95.85973 13.678901 95.85973 15.974908 C 95.85973 18.266575 95.039417 20.197998 93.403132 21.764839 C 91.771188 23.331679 89.752959 24.112929 87.352785 24.112929 C 84.948271 24.112929 82.930042 23.331679 81.289417 21.764839 C 79.657472 20.197998 78.83716 18.266575 78.83716 15.974908 C 78.83716 13.678901 79.657472 11.756158 81.289417 10.206679 Z M 87.374486 10.306505 C 85.781604 10.306505 84.423097 10.85338 83.290285 11.94713 C 82.157472 13.03654 81.593236 14.377686 81.593236 15.970568 C 81.593236 17.559109 82.161813 18.908936 83.303306 20.020047 C 84.440459 21.126818 85.798966 21.682373 87.374486 21.682373 C 88.950007 21.682373 90.295493 21.126818 91.410945 20.020047 C 92.526396 18.908936 93.086292 17.559109 93.086292 15.970568 C 93.086292 14.377686 92.526396 13.03654 91.410945 11.94713 C 90.295493 10.85338 88.950007 10.306505 87.374486 10.306505 Z M 118.476918 24.000082 L 115.976918 24.000082 L 115.950876 12.003554 L 110.885772 22.324734 L 109.119279 22.324734 L 104.045494 12.003554 L 104.045494 24.000082 L 101.502091 24.000082 L 101.502091 7.941053 L 104.713897 7.941053 L 110.009036 18.605116 L 115.291154 7.941053 L 118.476918 7.941053 Z M 136.9448 10.371609 L 128.177439 10.371609 L 128.177439 14.707547 L 136.024661 14.707547 L 136.024661 17.138102 L 128.177439 17.138102 L 128.177439 21.569526 L 137.218238 21.569526 L 137.218238 24.000082 L 125.473446 24.000082 L 125.473446 7.941053 L 136.9448 7.941053 Z M 162.912683 10.371609 L 157.812856 10.371609 L 157.812856 24.000082 L 155.108863 24.000082 L 155.108863 10.371609 L 150.039418 10.371609 L 150.039418 7.941053 L 162.912683 7.941053 Z M 169.097579 10.206679 C 170.738204 8.652859 172.756433 7.875949 175.160947 7.875949 C 177.561121 7.875949 179.57935 8.652859 181.211294 10.206679 C 182.847579 11.756158 183.667892 13.678901 183.667892 15.974908 C 183.667892 18.266575 182.847579 20.197998 181.211294 21.764839 C 179.57935 23.331679 177.561121 24.112929 175.160947 24.112929 C 172.756433 24.112929 170.738204 23.331679 169.097579 21.764839 C 167.465634 20.197998 166.645322 18.266575 166.645322 15.974908 C 166.645322 13.678901 167.465634 11.756158 169.097579 10.206679 Z M 175.182648 10.306505 C 173.589766 10.306505 172.231259 10.85338 171.098447 11.94713 C 169.965634 13.03654 169.401398 14.377686 169.401398 15.970568 C 169.401398 17.559109 169.969975 18.908936 171.111468 20.020047 C 172.24862 21.126818 173.607127 21.682373 175.182648 21.682373 C 176.758169 21.682373 178.103655 21.126818 179.219107 20.020047 C 180.334558 18.908936 180.894454 17.559109 180.894454 15.970568 C 180.894454 14.377686 180.334558 13.03654 179.219107 11.94713 C 178.103655 10.85338 176.758169 10.306505 175.182648 10.306505 Z M 175.182648 10.306505 " stroke="#000000" stroke-width="1.39095" stroke-opacity="1" stroke-miterlimit="4"/></svg>